<svg xmlns="http://www.w3.org/2000/svg" width="33.706" height="24" viewBox="0 0 33.706 24">
  <path id="Union_1" data-name="Union 1" d="M15.295,24H.6a.6.6,0,0,1-.6-.6V19.011c0-2.456,2.361-4.008,6.832-4.5v-.347a6.21,6.21,0,0,1-2.223-4.82c-.031-.186-.421-1.553-.484-1.769a8.5,8.5,0,0,1-.278-2.516A3.028,3.028,0,0,1,5.2,2.119,4.771,4.771,0,0,1,9.382,0,6.463,6.463,0,0,1,13,1.135c1.837,1.189,2.514,3.3,2.009,6.275a.567.567,0,0,1,0,.067l0,.033-.71,1.94a6.247,6.247,0,0,1-2.119,4.63v.439a13.326,13.326,0,0,1,4.66,1.262,12.746,12.746,0,0,1,4.685-1.264v-.347A6.21,6.21,0,0,1,19.3,9.348c-.031-.186-.421-1.553-.484-1.769a8.5,8.5,0,0,1-.278-2.516A3.028,3.028,0,0,1,19.9,2.119,4.771,4.771,0,0,1,24.076,0,6.463,6.463,0,0,1,27.7,1.135c1.837,1.189,2.514,3.3,2.009,6.275a.567.567,0,0,1,0,.067l0,.033-.71,1.94a6.247,6.247,0,0,1-2.119,4.63v.439c4.533.54,6.832,2.051,6.832,4.493V23.4a.6.6,0,0,1-.6.6Zm17.81-.244h0ZM15.295,23.756ZM.6,23.756h0A.356.356,0,0,1,.245,23.4.356.356,0,0,0,.6,23.756ZM30.735,22.8H32.5V19.011c0-1.009-.533-1.7-1.769-2.28Zm-2.963,0h1.762v-6.52a15.058,15.058,0,0,0-1.762-.411ZM24.8,19.311V22.8h1.769V16.9A7.2,7.2,0,0,1,24.8,19.311ZM21.842,22.8H23.62V19.311a7.021,7.021,0,0,1-1.765-2.373Zm-1.2,0v-6.95a13.98,13.98,0,0,0-1.747.4l0,1.817a3.431,3.431,0,0,1,.126.941V22.8Zm-4.6,0h1.63v-4.59a2.249,2.249,0,0,0-.819-1.01,2.35,2.35,0,0,0-.811,1.007Zm-2.963,0h1.615V19.011a3.4,3.4,0,0,1,.146-1V16.279a15.058,15.058,0,0,0-1.762-.411Zm-2.971-3.488V22.8h1.769V16.9A7.2,7.2,0,0,1,10.107,19.311ZM7.148,22.8H8.927V19.311a7.021,7.021,0,0,1-1.765-2.373ZM4.2,16.253,4.181,22.8H5.945v-6.95A13.98,13.98,0,0,0,4.2,16.253ZM1.2,19.011V22.8H2.978V16.711C1.754,17.3,1.2,18.02,1.2,19.011Zm21.522-3.944A3.879,3.879,0,0,0,24.2,18.2a3.947,3.947,0,0,0,1.483-3.137v-.209a3.9,3.9,0,0,1-1.531.347h-.01a3.911,3.911,0,0,1-1.417-.3Zm-14.693,0A3.879,3.879,0,0,0,9.506,18.2a3.947,3.947,0,0,0,1.483-3.137v-.209a3.9,3.9,0,0,1-1.531.347h-.01a3.911,3.911,0,0,1-1.417-.3Zm16.321-.117a3.64,3.64,0,0,0,1.576-.5h0A3.631,3.631,0,0,1,24.352,14.951Zm-14.693,0a3.64,3.64,0,0,0,1.576-.5h0A3.631,3.631,0,0,1,9.658,14.951Zm12.112-.9A6,6,0,0,1,19.548,9.38,6,6,0,0,0,21.77,14.052Zm-14.693,0A5.994,5.994,0,0,1,4.854,9.38,5.994,5.994,0,0,0,7.077,14.052Zm17.13-9.645a15.238,15.238,0,0,0-2.353.094.423.423,0,0,1-.073.046c-.29.159-.667.51-.642,1.692a.6.6,0,0,1-.06.279,5.549,5.549,0,0,0-.488,2.343,2.836,2.836,0,0,1-.064.642c.069,2.757,2.193,4.515,3.637,4.515a3.473,3.473,0,0,0,2.363-1.252,5.048,5.048,0,0,0,1.289-3.411,5.731,5.731,0,0,0-.492-2.518.6.6,0,0,1-.1-.395,1.9,1.9,0,0,0-.872-2.087C25.869,4.406,25.061,4.407,24.207,4.407Zm-14.693,0A15.238,15.238,0,0,0,7.161,4.5a.423.423,0,0,1-.073.046c-.29.159-.667.51-.642,1.692a.6.6,0,0,1-.06.279A5.549,5.549,0,0,0,5.9,8.861a2.836,2.836,0,0,1-.064.642c.069,2.757,2.193,4.515,3.637,4.515a3.473,3.473,0,0,0,2.363-1.252,5.048,5.048,0,0,0,1.289-3.411,5.731,5.731,0,0,0-.492-2.518.6.6,0,0,1-.1-.395,1.9,1.9,0,0,0-.872-2.087C11.176,4.406,10.367,4.407,9.514,4.407ZM27.527,6.7a5.793,5.793,0,0,1,.534,2.65,5.793,5.793,0,0,0-.534-2.65.358.358,0,0,1-.062-.2A.358.358,0,0,0,27.527,6.7Zm-14.693,0a5.793,5.793,0,0,1,.534,2.65,5.793,5.793,0,0,0-.534-2.65.352.352,0,0,1-.063-.2A.352.352,0,0,0,12.833,6.7Zm5.952-1.646a8.418,8.418,0,0,0,.264,2.44c.033.107.5,1.731.5,1.842,0-.111-.466-1.735-.5-1.842a8.418,8.418,0,0,1-.264-2.44c0-.072,0-.144,0-.214C18.782,4.911,18.782,4.982,18.785,5.054Zm-14.693,0a8.418,8.418,0,0,0,.264,2.44c.033.107.5,1.731.5,1.842,0-.111-.466-1.735-.5-1.842a8.418,8.418,0,0,1-.264-2.44c0-.072,0-.144,0-.214C4.087,4.911,4.089,4.982,4.092,5.054ZM28.175,6.409a4,4,0,0,1,.4,1.1,4,4,0,0,0-.4-1.1,2.757,2.757,0,0,0-1.419-2.928A2.755,2.755,0,0,1,28.175,6.409Zm-14.693,0a4,4,0,0,1,.4,1.1,4.031,4.031,0,0,0-.4-1.1,2.759,2.759,0,0,0-1.419-2.928A2.757,2.757,0,0,1,13.481,6.409ZM26.71,3.184a2.961,2.961,0,0,1,1.714,3.172,4.13,4.13,0,0,1,.184.408c.293-2.245-.219-3.758-1.556-4.621l-.005,0A5.259,5.259,0,0,0,24.09,1.2a3.686,3.686,0,0,0-3.055,1.374,3.628,3.628,0,0,0,.52.735,4.066,4.066,0,0,1,1.3-.158c.321,0,.663.014,1.025.029.386.016.786.033,1.187.033a9.085,9.085,0,0,0,1.3-.081.543.543,0,0,1,.081-.006A.6.6,0,0,1,26.71,3.184Zm-14.693,0a2.961,2.961,0,0,1,1.714,3.172,4.13,4.13,0,0,1,.184.408c.293-2.245-.219-3.758-1.556-4.621l-.005,0A5.259,5.259,0,0,0,9.4,1.2,3.686,3.686,0,0,0,6.342,2.574a3.628,3.628,0,0,0,.52.735,4.067,4.067,0,0,1,1.3-.158c.321,0,.663.014,1.025.029.386.016.786.033,1.187.033a9.085,9.085,0,0,0,1.3-.081.543.543,0,0,1,.081-.006A.6.6,0,0,1,12.017,3.184ZM19.743,5.02c.023.633.043,1.054.065,1.345q.048-.123.1-.243A3.135,3.135,0,0,1,20.555,4a4.863,4.863,0,0,1-.4-.547A2.058,2.058,0,0,0,19.743,5.02Zm-14.693,0c.023.633.043,1.054.065,1.345q.048-.123.1-.243A3.135,3.135,0,0,1,5.861,4a4.863,4.863,0,0,1-.4-.547A2.058,2.058,0,0,0,5.049,5.02ZM27.184,1.938a4.018,4.018,0,0,1,1.749,3.673,4.018,4.018,0,0,0-1.749-3.673Zm-14.693,0a4.018,4.018,0,0,1,1.748,3.673,4.018,4.018,0,0,0-1.748-3.673q-.14-.095-.281-.18Q12.351,1.843,12.491,1.938ZM26.6,3.406a.324.324,0,0,0-.088-.029A.357.357,0,0,1,26.6,3.406Zm-14.693,0a.32.32,0,0,0-.089-.029A.363.363,0,0,1,11.911,3.406Zm12.241,9.107h-.008a2.093,2.093,0,0,1-1.479-.618.6.6,0,0,1,.853-.847.885.885,0,0,0,.628.263h.015a.887.887,0,0,0,.627-.262.6.6,0,1,1,.853.846,2.093,2.093,0,0,1-1.479.618Zm0-.245h0Zm-1.315-.545.017.016-.017-.016a.357.357,0,0,1-.1-.251A.357.357,0,0,0,22.839,11.723Zm1.322-.168a1.126,1.126,0,0,0,.8-.335A1.128,1.128,0,0,1,24.16,11.556Zm-14.7.957H9.45A2.093,2.093,0,0,1,7.972,11.9a.6.6,0,0,1,.853-.847.885.885,0,0,0,.628.263h.015a.887.887,0,0,0,.627-.262.6.6,0,1,1,.853.846,2.093,2.093,0,0,1-1.479.618Zm0-.245h0Zm-1.315-.545.016.016-.016-.016a.357.357,0,0,1-.1-.251A.357.357,0,0,0,8.145,11.723Zm1.321-.168a1.127,1.127,0,0,0,.8-.335A1.128,1.128,0,0,1,9.466,11.556Z" fill="#371b34"/>
</svg>
