<svg xmlns="http://www.w3.org/2000/svg" width="24" height="24" viewBox="0 0 24 24">
  <g id="vuesax_outline_device-message" data-name="vuesax/outline/device-message" transform="translate(-300 -252)">
    <g id="device-message">
      <path id="Vector" d="M14.25,15.9h-9C1.91,15.9,0,13.99,0,10.65V5.25C0,1.91,1.91,0,5.25,0h2.7a.767.767,0,0,1,.61.31.746.746,0,0,1,.1.68A3.013,3.013,0,0,0,8.5,2V5.9a2.51,2.51,0,0,0,.67,1.83A2.51,2.51,0,0,0,11,8.4a.755.755,0,0,1,.75.75v1.2l2.73-1.83a.771.771,0,0,1,.42-.13h2.6a3.013,3.013,0,0,0,1.01-.16.751.751,0,0,1,.68.1.74.74,0,0,1,.31.61v1.7C19.5,13.99,17.59,15.9,14.25,15.9Zm-9-14.4C2.73,1.5,1.5,2.73,1.5,5.25v5.4c0,2.52,1.23,3.75,3.75,3.75h9c2.52,0,3.75-1.23,3.75-3.75V9.87a4.07,4.07,0,0,1-.5.03H15.13l-2.7,1.8a1.406,1.406,0,0,1-1.44.06,1.382,1.382,0,0,1-.73-1.22v-.7A3.877,3.877,0,0,1,8.12,8.79,4.042,4.042,0,0,1,7.01,5.9V2c0-.17.01-.34.02-.5Z" transform="translate(301.25 255.25)" fill="#371b34"/>
      <path id="Vector-2" data-name="Vector" d="M4.65,13.93a1.449,1.449,0,0,1-.67-.17,1.382,1.382,0,0,1-.73-1.22v-.7a3.877,3.877,0,0,1-2.14-1.05A4.042,4.042,0,0,1,0,7.9V4A4.52,4.52,0,0,1,.24,2.51,3.788,3.788,0,0,1,4,0h6.5a3.827,3.827,0,0,1,4,4V7.9A3.78,3.78,0,0,1,12,11.66a4.712,4.712,0,0,1-1.5.24H8.13l-2.7,1.8A1.391,1.391,0,0,1,4.65,13.93ZM4,1.5A2.31,2.31,0,0,0,1.66,3,3.176,3.176,0,0,0,1.5,4V7.9a2.51,2.51,0,0,0,.67,1.83A2.51,2.51,0,0,0,4,10.4a.755.755,0,0,1,.75.75v1.2l2.73-1.83a.771.771,0,0,1,.42-.13h2.6a3.013,3.013,0,0,0,1.01-.16A2.3,2.3,0,0,0,13,7.89V3.99a2.322,2.322,0,0,0-2.5-2.5H4Z" transform="translate(308.25 253.25)" fill="#371b34"/>
      <path id="Vector-3" data-name="Vector" d="M7.95,1.5H.75A.755.755,0,0,1,0,.75.755.755,0,0,1,.75,0h7.2A.755.755,0,0,1,8.7.75.755.755,0,0,1,7.95,1.5Z" transform="translate(306.65 273.25)" fill="#371b34"/>
      <path id="Vector-4" data-name="Vector" d="M.75,5.1A.755.755,0,0,1,0,4.35V.75A.755.755,0,0,1,.75,0,.755.755,0,0,1,1.5.75v3.6A.755.755,0,0,1,.75,5.1Z" transform="translate(310.25 269.65)" fill="#371b34"/>
      <path id="Vector-5" data-name="Vector" d="M.75,1.5A.75.75,0,1,1,1.5.75.749.749,0,0,1,.75,1.5Z" transform="translate(314.69 258.5)" fill="#371b34"/>
      <path id="Vector-6" data-name="Vector" d="M.75,1.5A.75.75,0,1,1,1.5.75.749.749,0,0,1,.75,1.5Z" transform="translate(317.5 258.5)" fill="#371b34"/>
      <path id="Vector-7" data-name="Vector" d="M.75,1.5A.75.75,0,1,1,1.5.75.749.749,0,0,1,.75,1.5Z" transform="translate(311.87 258.5)" fill="#371b34"/>
      <path id="Vector-8" data-name="Vector" d="M0,0H24V24H0Z" transform="translate(300 252)" fill="none" opacity="0"/>
    </g>
  </g>
</svg>
