<svg width="30" height="30" viewBox="0 0 30 30" fill="none" xmlns="http://www.w3.org/2000/svg">
<path d="M25 15.75C25.4142 15.75 25.75 15.4142 25.75 15C25.75 14.5858 25.4142 14.25 25 14.25V15.75ZM5 14.25C4.58579 14.25 4.25 14.5858 4.25 15C4.25 15.4142 4.58579 15.75 5 15.75V14.25ZM9.47204 21.7827C9.76624 22.0743 10.2411 22.0722 10.5327 21.778C10.8243 21.4838 10.8222 21.0089 10.528 20.7173L9.47204 21.7827ZM7.79629 19.0659L8.32425 18.5332L7.79629 19.0659ZM7.79629 10.9341L7.26833 10.4014L7.26833 10.4014L7.79629 10.9341ZM10.528 9.28269C10.8222 8.99111 10.8243 8.51624 10.5327 8.22204C10.2411 7.92784 9.76624 7.92573 9.47204 8.21731L10.528 9.28269ZM5.02486 15.3917L4.28088 15.4865L4.28088 15.4865L5.02486 15.3917ZM5.02486 14.6083L4.28088 14.5135L4.28088 14.5135L5.02486 14.6083ZM25 14.25H5V15.75H25V14.25ZM10.528 20.7173L8.32425 18.5332L7.26833 19.5986L9.47204 21.7827L10.528 20.7173ZM8.32425 11.4668L10.528 9.28269L9.47204 8.21731L7.26833 10.4014L8.32425 11.4668ZM8.32425 18.5332C7.43301 17.6499 6.8104 17.0312 6.38705 16.504C5.9732 15.9887 5.81183 15.6341 5.76884 15.2968L4.28088 15.4865C4.3732 16.2108 4.71883 16.8223 5.21751 17.4433C5.70669 18.0524 6.40215 18.7401 7.26833 19.5986L8.32425 18.5332ZM7.26833 10.4014C6.40215 11.2599 5.70669 11.9476 5.21751 12.5567C4.71883 13.1777 4.3732 13.7892 4.28088 14.5135L5.76884 14.7032C5.81183 14.3659 5.9732 14.0113 6.38705 13.496C6.8104 12.9688 7.43301 12.3501 8.32425 11.4668L7.26833 10.4014ZM5.76884 15.2968C5.74372 15.0997 5.74372 14.9003 5.76884 14.7032L4.28088 14.5135C4.23971 14.8365 4.23971 15.1635 4.28088 15.4865L5.76884 15.2968Z" fill="#72777A"/>
</svg>
