<svg xmlns="http://www.w3.org/2000/svg" width="23.998" height="24" viewBox="0 0 23.998 24">
  <g id="Group_111" data-name="Group 111" transform="translate(96.074 -178.611)">
    <path id="Path_594" data-name="Path 594" d="M-70.42,381.051h20.988v11.261c0,.626-.254.876-.885.876H-69.527c-.643,0-.893-.247-.893-.891V381.051Z" transform="translate(-24.15 -190.577)" fill="#dcdcdc"/>
    <g id="Group_15866" data-name="Group 15866" transform="translate(-96.074 178.611)">
      <path id="Path_590" data-name="Path 590" d="M-96.072,279.421c.64,0,1.279.014,1.916.016h5.6v4.525h-6.627a.83.83,0,0,1-.893-.563Z" transform="translate(96.074 -273.511)" fill="#dcdcdc"/>
      <path id="Path_591" data-name="Path 591" d="M-84.407,178.616l-.747,4.5h-7.437l.352-1.059c.3-.916.614-1.831.91-2.755a.973.973,0,0,1,.6-.694Z" transform="translate(92.796 -178.611)" fill="#dcdcdc"/>
      <path id="Path_592" data-name="Path 592" d="M176.656,178.621a.946.946,0,0,1,.587.672c.391,1.2.8,2.4,1.2,3.593.024.072.041.146.067.24h-7.426l-.749-4.5Z" transform="translate(-154.722 -178.616)" fill="#dcdcdc"/>
      <path id="Path_593" data-name="Path 593" d="M63.912,178.621c.1.647.2,1.294.3,1.94.128.786.263,1.569.394,2.354.01.061.011.12.017.2H58.783c.061-.382.12-.756.181-1.128q.266-1.593.533-3.185a1.511,1.511,0,0,0,.008-.186Z" transform="translate(-49.711 -178.616)" fill="#dcdcdc"/>
      <path id="Path_595" data-name="Path 595" d="M192.685,279.986v3.745a.711.711,0,0,1-.764.761c-.632.006-1.265,0-1.9,0h-4.857v-4.507Z" transform="translate(-168.688 -274.044)" fill="#dcdcdc"/>
      <path id="Path_596" data-name="Path 596" d="M62.9,284.417H56.815v-4.5H62.9Z" transform="translate(-47.858 -273.979)" fill="#dcdcdc"/>
    </g>
  </g>
</svg>
