<svg xmlns="http://www.w3.org/2000/svg" width="108.639" height="108.639" viewBox="0 0 108.639 108.639">
  <g id="vuesax_bulk_user-tick" data-name="vuesax/bulk/user-tick" transform="translate(-300 -188)">
    <g id="user-tick" transform="translate(300 188)">
      <path id="Vector" d="M0,0H108.639V108.639H0Z" fill="none" opacity="0"/>
      <path id="Vector-2" data-name="Vector" d="M18.107,0A18.128,18.128,0,0,0,0,18.107a17.748,17.748,0,0,0,2.625,9.325,17.97,17.97,0,0,0,15.481,8.782,17.677,17.677,0,0,0,11.905-4.527,16.266,16.266,0,0,0,3.576-4.255,17.748,17.748,0,0,0,2.625-9.325A18.1,18.1,0,0,0,18.107,0Z" transform="translate(63.373 58.846)" fill="#fc4d1f"/>
      <path id="Vector-3" data-name="Vector" d="M82.294,33.95a2.241,2.241,0,0,1-2.263,2.263H2.263A2.241,2.241,0,0,1,0,33.95C0,15.21,18.469,0,41.147,0A47.592,47.592,0,0,1,54.5,1.856,18.206,18.206,0,0,0,50.2,13.58,17.749,17.749,0,0,0,52.826,22.9a16.674,16.674,0,0,0,3.44,4.119,17.749,17.749,0,0,0,12.041,4.663,17.938,17.938,0,0,0,12.9-5.432A27.024,27.024,0,0,1,82.294,33.95Z" transform="translate(13.173 63.373)" fill="#371b34" opacity="0.4"/>
      <path id="Vector-4" data-name="Vector" d="M45.266,22.633A22.633,22.633,0,1,1,22.633,0,22.633,22.633,0,0,1,45.266,22.633Z" transform="translate(31.687 9.053)" fill="#371b34"/>
      <g id="Vector-5" data-name="Vector" transform="translate(73.961 68.337)" fill="#fff">
        <path d="M 7.51173734664917 17.73132705688477 C 6.477897167205811 17.73132705688477 5.636807441711426 16.89023590087891 5.636807441711426 15.8563871383667 L 5.636807441711426 5.895636558532715 L 2.695527315139771 8.836916923522949 C 2.343967437744141 9.18848705291748 1.873347401618958 9.382096290588379 1.370357394218445 9.382096290588379 C 0.8673673868179321 9.382096290588379 0.3967474102973938 9.18848705291748 0.0451774038374424 8.836926460266113 C -0.6855226159095764 8.106216430664062 -0.6855226159095764 6.917266845703125 0.04516740143299103 6.186566829681396 L 6.186567306518555 0.04518673196434975 C 6.538127422332764 -0.3063832521438599 7.008747577667236 -0.5000032782554626 7.51173734664917 -0.5000032782554626 C 8.014727592468262 -0.5000032782554626 8.485357284545898 -0.3063832521438599 8.836917877197266 0.04518673196434975 L 14.97829723358154 6.186566829681396 C 15.34296703338623 6.551226615905762 15.54143714904785 7.029826641082764 15.5371675491333 7.534206867218018 C 15.53297901153564 8.028664588928223 15.33346462249756 8.492206573486328 14.97523784637451 8.839968681335449 C 14.62108135223389 9.192560195922852 14.1517333984375 9.386676788330078 13.65312767028809 9.386676788330078 C 13.15310764312744 9.386676788330078 12.68248748779297 9.191436767578125 12.32795715332031 8.836926460266113 L 9.386677742004395 5.895638942718506 L 9.386677742004395 15.8563871383667 C 9.386677742004395 16.89023590087891 8.545587539672852 17.73132705688477 7.51173734664917 17.73132705688477 Z" stroke="none"/>
        <path d="M 7.511738777160645 -3.814697265625e-06 C 7.15883731842041 -3.814697265625e-06 6.805937767028809 0.1329059600830078 6.540117263793945 0.3987274169921875 L 0.3987274169921875 6.540116310119629 C -0.1329126358032227 7.07176685333252 -0.1329126358032227 7.951716423034668 0.3987274169921875 8.483366966247559 C 0.9303760528564453 9.015005111694336 1.810336112976074 9.015006065368652 2.341977119445801 8.483366966247559 L 6.136807441711426 4.688536643981934 L 6.136807441711426 15.8563871383667 C 6.136807441711426 16.60801696777344 6.760107040405273 17.23132705688477 7.51173734664917 17.23132705688477 C 8.26337718963623 17.23132705688477 8.886676788330078 16.60801696777344 8.886676788330078 15.8563871383667 L 8.886676788330078 4.688536643981934 L 12.6815071105957 8.483366966247559 C 12.95649719238281 8.758346557617188 13.30480766296387 8.886676788330078 13.65312767028809 8.886676788330078 C 14.0014476776123 8.886676788330078 14.34976768493652 8.758346557617188 14.62474727630615 8.483366966247559 C 15.17472743988037 7.951716423034668 15.17472743988037 7.090096473693848 14.62474727630615 6.540116310119629 L 8.483367919921875 0.3987274169921875 C 8.21754264831543 0.1329059600830078 7.864639759063721 -3.814697265625e-06 7.511738777160645 -3.814697265625e-06 M 7.51173734664917 -1.000003814697266 C 8.14826774597168 -1.000003814697266 8.744457244873047 -0.7543830871582031 9.190457344055176 -0.3083934783935547 L 15.33185768127441 5.833006858825684 C 15.79208755493164 6.293246269226074 16.04256820678711 6.898917198181152 16.03714752197266 7.538446426391602 C 16.03183174133301 8.166440963745117 15.77944660186768 8.754751205444336 15.32622146606445 9.196094512939453 C 14.87790966033936 9.641511917114258 14.28408813476562 9.886676788330078 13.65312767028809 9.886676788330078 C 13.01955795288086 9.886676788330078 12.42337799072266 9.639427185058594 11.9744176864624 9.190486907958984 L 9.886676788330078 7.102752685546875 L 9.886676788330078 15.8563871383667 C 9.886676788330078 17.16593742370605 8.821287155151367 18.23132705688477 7.51173734664917 18.23132705688477 C 6.202197074890137 18.23132705688477 5.136807441711426 17.16593742370605 5.136807441711426 15.8563871383667 L 5.136807441711426 7.102756500244141 L 3.049087524414062 9.19047737121582 C 2.603087425231934 9.636476516723633 2.00689697265625 9.882097244262695 1.370357513427734 9.882097244262695 C 0.7338075637817383 9.882097244262695 0.1376171112060547 9.636476516723633 -0.3083829879760742 9.19047737121582 C -1.23402214050293 8.264816284179688 -1.23402214050293 6.7586669921875 -0.3083829879760742 5.833016395568848 L 5.8330078125 -0.3083839416503906 C 6.279006958007812 -0.7543830871582031 6.875197410583496 -1.000003814697266 7.51173734664917 -1.000003814697266 Z" stroke="none" fill="#fff"/>
      </g>
    </g>
  </g>
</svg>
