<svg xmlns="http://www.w3.org/2000/svg" width="108.639" height="108.639" viewBox="0 0 108.639 108.639">
  <g id="vuesax_bulk_user-tick" data-name="vuesax/bulk/user-tick" transform="translate(-300 -188)">
    <g id="user-tick" transform="translate(300 188)">
      <path id="Vector" d="M0,0H108.639V108.639H0Z" fill="none" opacity="0"/>
      <path id="Vector-2" data-name="Vector" d="M18.107,0A18.128,18.128,0,0,0,0,18.107a17.748,17.748,0,0,0,2.625,9.325,17.97,17.97,0,0,0,15.481,8.782,17.677,17.677,0,0,0,11.905-4.527,16.266,16.266,0,0,0,3.576-4.255,17.748,17.748,0,0,0,2.625-9.325A18.1,18.1,0,0,0,18.107,0Z" transform="translate(63.373 58.846)" fill="#fc4d1f"/>
      <path id="Vector-3" data-name="Vector" d="M82.294,33.95a2.241,2.241,0,0,1-2.263,2.263H2.263A2.241,2.241,0,0,1,0,33.95C0,15.21,18.469,0,41.147,0A47.592,47.592,0,0,1,54.5,1.856,18.206,18.206,0,0,0,50.2,13.58,17.749,17.749,0,0,0,52.826,22.9a16.674,16.674,0,0,0,3.44,4.119,17.749,17.749,0,0,0,12.041,4.663,17.938,17.938,0,0,0,12.9-5.432A27.024,27.024,0,0,1,82.294,33.95Z" transform="translate(13.173 63.373)" fill="#371b34" opacity="0.4"/>
      <path id="Vector-4" data-name="Vector" d="M45.266,22.633A22.633,22.633,0,1,1,22.633,0,22.633,22.633,0,0,1,45.266,22.633Z" transform="translate(31.687 9.053)" fill="#371b34"/>
      <path id="Vector-5" data-name="Vector" d="M27.477,16.16l-9.642,8.917a3.453,3.453,0,0,1-2.309.905,3.357,3.357,0,0,1-2.4-1L8.646,20.506a3.393,3.393,0,1,1,4.8-4.8l2.173,2.173,7.243-6.7a3.4,3.4,0,0,1,4.617,4.979Z" transform="translate(63.373 58.846)" fill="#fff"/>
    </g>
  </g>
</svg>
