<svg xmlns="http://www.w3.org/2000/svg" width="48" height="48" viewBox="0 0 48 48">
  <g id="Group_16746" data-name="Group 16746" transform="translate(-1153.5 -566)">
    <path id="Path_17059" data-name="Path 17059" d="M1209.391,876.857l-3.133,9.4h0a3.444,3.444,0,0,0,3.256,4.53,3.461,3.461,0,0,0,1.1-.179l9.4-3.132-4.219-6.4Z" transform="translate(-47.651 -281.714)" fill="#fff"/>
    <path id="Path_17060" data-name="Path 17060" d="M1200.487,567.012a3.407,3.407,0,0,0-3.615-.8l-41.115,15.042a3.44,3.44,0,0,0-.712,6.1l13.923,9.183,17.153-17.153a1.406,1.406,0,0,1,1.989,1.989l-17.153,17.153,9.183,13.923a3.42,3.42,0,0,0,2.865,1.547,3.525,3.525,0,0,0,.406-.024,3.423,3.423,0,0,0,2.832-2.235l15.042-41.115A3.407,3.407,0,0,0,1200.487,567.012Z" fill="#fff"/>
  </g>
</svg>
