<svg xmlns="http://www.w3.org/2000/svg" width="23.5" height="24.5" viewBox="0 0 23.5 24.5">
  <g id="Group_1" data-name="Group 1" transform="translate(2298.25 3510.25)">
    <g id="Layer_2" data-name="Layer 2" transform="translate(-2298 -3509.997)">
      <path id="Path_1" data-name="Path 1" d="M.364,24H18.545a.364.364,0,0,0,.364-.364v-4.48c0-3.073-3.88-4.022-6.974-4.363V14A6.138,6.138,0,0,0,14.1,9.347l.727-1.989a.364.364,0,0,0,0-.062c.505-2.945-.149-5.025-1.938-6.182-2.854-1.931-6.4-1.2-7.64.975a2.855,2.855,0,0,0-1.32,2.818A8.57,8.57,0,0,0,4.2,7.4c.033.109.509,1.767.509,1.88a6.123,6.123,0,0,0,2.269,4.814v.7C3.909,15.1,0,16.078,0,19.154v4.48A.364.364,0,0,0,.364,24Zm15.512-7.552c1.313.538,2.305,1.284,2.305,2.709V23.27H15.876Zm-3.025-.793a15.465,15.465,0,0,1,2.3.527V23.27h-2.3Zm-.727-.1V23.27H9.818V19.357c1.254-1.276,2-2.156,2.105-3.825ZM9.454,18.688C8.24,17.456,7.7,16.747,7.7,15.128v-.564a3.705,3.705,0,0,0,1.7.455,3.716,3.716,0,0,0,1.818-.516v.625C11.214,16.725,10.643,17.477,9.454,18.688ZM12.5,1.725c1.545,1,2.08,2.767,1.633,5.414l-.178.495a4.1,4.1,0,0,0-.444-1.345,2.8,2.8,0,0,0-1.6-3.065.364.364,0,0,0-.2-.033c-1.858.273-4.029-.236-5.014.229a3.971,3.971,0,0,1-.756-1.062C6.967.689,9.96,0,12.5,1.725ZM4.927,7.314c-.135-.484-.2-.28-.273-2.433a2.208,2.208,0,0,1,.727-2.007,4.694,4.694,0,0,0,.691.964,2.852,2.852,0,0,0-.749,2.211,5.454,5.454,0,0,0-.4,1.265Zm.527,2.094a9.456,9.456,0,0,1,.589-3.116.364.364,0,0,0,.036-.171c-.022-1.029.229-1.651.793-1.956a.149.149,0,0,0,.04-.025c.3-.247,3.7-.065,4.785-.2a2.174,2.174,0,0,1,1.091,2.411.364.364,0,0,0,.062.24A5.924,5.924,0,0,1,13.4,9.292c0,3.062-2.356,5.014-3.978,5.014S5.505,12.394,5.454,9.409Zm1.36,6.131.193-.018c.1,1.774.913,2.636,2.105,3.836V23.27H6.8Zm-3.029.615a14.407,14.407,0,0,1,2.284-.52V23.27h-2.3Zm-3.058,3c0-1.411,1-2.182,2.313-2.734V23.27H.727Z" transform="translate(0 0)" fill="#371b34"/>
      <path id="Path_1_-_Outline" data-name="Path 1 - Outline" d="M18.545,24.247H.364a.614.614,0,0,1-.614-.614v-4.48c0-2.507,2.41-4.091,6.974-4.589V14.21A6.338,6.338,0,0,1,4.455,9.29C4.423,9.1,4.026,7.7,3.961,7.484a8.683,8.683,0,0,1-.284-2.568A3.091,3.091,0,0,1,5.062,1.91,4.869,4.869,0,0,1,9.328-.253a6.593,6.593,0,0,1,3.7,1.159c1.876,1.214,2.566,3.369,2.052,6.4a.615.615,0,0,1,0,.068l0,.033-.724,1.98a6.379,6.379,0,0,1-2.163,4.727v.448c4.628.551,6.974,2.093,6.974,4.586v4.48A.614.614,0,0,1,18.545,24.247ZM9.328.247A4.353,4.353,0,0,0,5.464,2.213l-.032.056L5.378,2.3a2.6,2.6,0,0,0-1.2,2.6,8.849,8.849,0,0,0,.248,2.4l.011.03c.005.017.52,1.773.52,1.952A5.844,5.844,0,0,0,7.132,13.9l.093.075v1.044L7,15.039C3.92,15.346.25,16.309.25,19.154v4.48a.114.114,0,0,0,.114.114H18.545a.114.114,0,0,0,.114-.114v-4.48c0-2.236-2.272-3.62-6.752-4.115l-.223-.025V13.889l.088-.075a5.88,5.88,0,0,0,2.075-4.468V9.3l.728-1.99,0-.027.005-.032c.487-2.836-.128-4.831-1.827-5.929l0,0A6.1,6.1,0,0,0,9.328.247Zm9.1,23.273H15.626V16.072l.345.141c1.146.47,2.461,1.228,2.461,2.94Zm-2.305-.5h1.805V19.154c0-1.029-.544-1.739-1.805-2.327Zm-.727.5H12.6V15.362l.287.043a15.764,15.764,0,0,1,2.335.536L15.4,16Zm-2.3-.5h1.8V16.365a15.281,15.281,0,0,0-1.8-.419Zm-.727.5H9.568V19.255l.072-.073c1.312-1.335,1.941-2.132,2.034-3.665l.016-.262.684.075Zm-2.305-.5h1.805V17a7.364,7.364,0,0,1-1.805,2.456Zm-.705.5H6.545l.019-8.208.677-.064.015.259c.095,1.648.8,2.432,2.033,3.674l.073.073Zm-2.316-.5H8.862V19.46a7.158,7.158,0,0,1-1.8-2.422Zm-.728.5h-2.8l.019-7.55.174-.055a14.7,14.7,0,0,1,2.323-.529l.286-.041Zm-2.3-.5h1.8V15.925a14.216,14.216,0,0,0-1.784.413Zm-.728.5H.477V19.154c0-1.724,1.407-2.518,2.465-2.965l.347-.147Zm-2.313-.5H2.79V16.806c-1.25.6-1.813,1.336-1.813,2.348Zm8.477-3.975-.178-.181C8.033,17.6,7.448,16.823,7.448,15.128v-.986l.37.2a3.47,3.47,0,0,0,1.582.424,3.473,3.473,0,0,0,1.691-.482l.377-.223v1.064c0,1.745-.7,2.575-1.835,3.735ZM7.948,14.962v.166a3.958,3.958,0,0,0,1.506,3.2,4.033,4.033,0,0,0,1.514-3.2v-.213a3.975,3.975,0,0,1-1.563.355h-.01A3.973,3.973,0,0,1,7.948,14.962Zm1.47-.406a3.969,3.969,0,0,1-2.755-1.41A5.642,5.642,0,0,1,5.2,9.413V9.362l.02-.048a2.649,2.649,0,0,0,.048-.54A6.1,6.1,0,0,1,5.82,6.181a.112.112,0,0,0,.01-.051c-.024-1.137.269-1.83.923-2.184l.006,0c.214-.168.809-.194,2.7-.2.864,0,1.757,0,2.2-.058l.076-.01.069.035a2.429,2.429,0,0,1,1.226,2.657.114.114,0,0,0,.019.075,6.081,6.081,0,0,1,.589,2.837v.01A5.658,5.658,0,0,1,12.2,13.116,4.053,4.053,0,0,1,9.418,14.557ZM5.705,9.448c.07,2.815,2.238,4.609,3.713,4.609a3.55,3.55,0,0,0,2.412-1.277A5.158,5.158,0,0,0,13.146,9.3a5.852,5.852,0,0,0-.5-2.57.613.613,0,0,1-.1-.4,1.943,1.943,0,0,0-.89-2.13c-.492.052-1.317.052-2.187.053a15.549,15.549,0,0,0-2.4.1.4.4,0,0,1-.075.047c-.3.162-.68.521-.655,1.727a.613.613,0,0,1-.061.285,5.669,5.669,0,0,0-.5,2.392A2.918,2.918,0,0,1,5.705,9.448Zm8.486-1.729-.483-.049a3.837,3.837,0,0,0-.417-1.263l-.035-.065.006-.073A2.568,2.568,0,0,0,11.8,3.451a.116.116,0,0,0-.067-.012,9.628,9.628,0,0,1-1.392.088c-.42,0-.833-.017-1.232-.033-.364-.015-.708-.029-1.026-.029A3.145,3.145,0,0,0,6.8,3.646l-.159.075L6.514,3.6a4.212,4.212,0,0,1-.8-1.129l-.06-.124.073-.117A4.2,4.2,0,0,1,9.342.471a5.869,5.869,0,0,1,3.3,1.046c1.637,1.057,2.206,2.91,1.741,5.664l0,.022Zm-.424-1.483a4.351,4.351,0,0,1,.188.417c.3-2.291-.223-3.836-1.588-4.717l-.005,0A5.372,5.372,0,0,0,9.342.971a3.765,3.765,0,0,0-3.119,1.4,3.709,3.709,0,0,0,.531.751,4.158,4.158,0,0,1,1.332-.161c.328,0,.677.014,1.047.029.395.016.8.033,1.212.033a9.153,9.153,0,0,0,1.324-.083.629.629,0,0,1,.083-.006.617.617,0,0,1,.265.06A3.023,3.023,0,0,1,13.767,6.236ZM4.686,7.381c-.021-.075-.04-.133-.059-.189a7.444,7.444,0,0,1-.223-2.3,2.451,2.451,0,0,1,.819-2.21l.234-.19.143.265a4.447,4.447,0,0,0,.654.912l.17.183-.182.17a2.61,2.61,0,0,0-.67,2.026V6.1l-.023.05a5.209,5.209,0,0,0-.378,1.207Zm.638-4.109a2.1,2.1,0,0,0-.42,1.6c.023.646.044,1.075.066,1.372q.048-.125.1-.248a3.2,3.2,0,0,1,.659-2.165A4.95,4.95,0,0,1,5.324,3.272Z" transform="translate(0 0)" fill="#371b34"/>
      <path id="Path_2" data-name="Path 2" d="M23.337,31.691a1.873,1.873,0,0,0,1.342-.556.364.364,0,1,0-.516-.513,1.168,1.168,0,0,1-1.651,0,.364.364,0,0,0-.516.513A1.873,1.873,0,0,0,23.337,31.691Z" transform="translate(-13.93 -19.42)" fill="#371b34"/>
      <path id="Path_2_-_Outline" data-name="Path 2 - Outline" d="M23.346,31.941h-.02a2.136,2.136,0,0,1-1.51-.631.614.614,0,0,1,.872-.865.905.905,0,0,0,.64.268h.015a.9.9,0,0,0,.64-.267.614.614,0,1,1,.872.865A2.136,2.136,0,0,1,23.346,31.941Zm-.011-.5h.011a1.633,1.633,0,0,0,1.154-.482.114.114,0,0,0,0-.161.117.117,0,0,0-.162,0,1.408,1.408,0,0,1-1,.416h-.015a1.408,1.408,0,0,1-1-.416.118.118,0,0,0-.161,0,.114.114,0,0,0,0,.16,1.633,1.633,0,0,0,1.155.483Z" transform="translate(-13.93 -19.42)" fill="#371b34"/>
    </g>
    <path id="Vector" d="M5,.75H0A.75.75,0,0,1-.75,0,.75.75,0,0,1,0-.75H5A.75.75,0,0,1,5.75,0,.75.75,0,0,1,5,.75Z" transform="translate(-2280.5 -3506)" fill="#371b34"/>
    <path id="Vector-2" data-name="Vector" d="M0,5.75A.75.75,0,0,1-.75,5V0A.75.75,0,0,1,0-.75.75.75,0,0,1,.75,0V5A.75.75,0,0,1,0,5.75Z" transform="translate(-2278 -3508.5)" fill="#371b34"/>
  </g>
</svg>
