<svg xmlns="http://www.w3.org/2000/svg" width="16" height="16" viewBox="0 0 16 16">
  <path id="Color_Overlay" data-name="Color Overlay" d="M58,288a.667.667,0,0,1-.666-.667V282a.667.667,0,0,1,.666-.666h5.333A.667.667,0,0,1,64,282v5.333a.667.667,0,0,1-.667.667Zm0-.667h5.332V282H58ZM48.667,288a.668.668,0,0,1-.667-.667V282a.668.668,0,0,1,.667-.666H54a.667.667,0,0,1,.667.666v5.333A.667.667,0,0,1,54,288Zm0-.667H54V282H48.667ZM58,278.667a.668.668,0,0,1-.666-.667v-5.333A.667.667,0,0,1,58,272h5.333a.667.667,0,0,1,.667.667V278a.668.668,0,0,1-.667.667ZM58,278h5.332v-5.333H58Zm-9.333.667A.668.668,0,0,1,48,278v-5.333a.668.668,0,0,1,.667-.667H54a.667.667,0,0,1,.667.667V278a.668.668,0,0,1-.667.667Zm0-.667H54v-5.333H48.667Z" transform="translate(-48 -272)" fill="#fff"/>
</svg>
