<svg xmlns="http://www.w3.org/2000/svg" width="29.012" height="24.75" viewBox="0 0 29.012 24.75">
  <g id="Group_17987" data-name="Group 17987" transform="translate(-7818.248 -12207.25)">
    <path id="plank" d="M48.476,40.181a3.725,3.725,0,0,1,2.411.982,3.785,3.785,0,0,1,1.064,4.153,3.86,3.86,0,0,1-.8,1.328,6.288,6.288,0,0,1,1.433-.121h9.176c.2,0,.4,0,.594-.006s.414-.006.623-.006.373,0,.536.008a2.107,2.107,0,0,1,1.315,3.647,2.384,2.384,0,0,1-1.68.547c-.121,0-.238,0-.352-.007s-.2-.006-.294-.006H56.431a6.039,6.039,0,0,0,.972.958,10.612,10.612,0,0,0,1.106.583c.124.06.246.118.363.176l11.9,5.806c.115.055.232.108.35.162a9.973,9.973,0,0,1,1.287.669,2.494,2.494,0,0,1,.992,2.874,2.455,2.455,0,0,1-2.748,1.858,8.689,8.689,0,0,1-1.655-.517c-.187-.072-.364-.14-.513-.192l-5.319-1.9c-1.872-.639-3.765-1.314-5.6-1.967q-1.151-.41-2.3-.819l-2.6-.93c-.278-.1-.506-.169-.707-.233a2.82,2.82,0,0,1-1.344-.69,3.558,3.558,0,0,1-.563-.85v5.171c0,.084,0,.169,0,.253a2.533,2.533,0,0,1-.6,2.01,2.048,2.048,0,0,1-1.494.628,2.2,2.2,0,0,1-1.539-.632,2.442,2.442,0,0,1-.6-1.891V53.187c0-1.758.3-3.548,2.481-4.741l.187-.1a2.981,2.981,0,0,0,.915-.648,4.026,4.026,0,0,1-.9.143c-.076,0-.153.007-.229.007a3.722,3.722,0,0,1-3.451-2.336,3.811,3.811,0,0,1,3.387-5.316C48.3,40.185,48.387,40.181,48.476,40.181Zm-.2,6.165c.048,0,.1,0,.145,0h.013a2.305,2.305,0,0,0,2.108-1.535,2.281,2.281,0,0,0-.658-2.531,2.256,2.256,0,0,0-1.405-.594,1.287,1.287,0,0,0-.139.007l-.035,0h-.035A2.31,2.31,0,0,0,46.2,44.924,2.253,2.253,0,0,0,48.274,46.346Zm14.869,2.867a.958.958,0,0,0,.674-.16.585.585,0,0,0,.14-.644.566.566,0,0,0-.5-.391c-.145,0-.3-.007-.484-.007-.2,0-.4,0-.6.006s-.409.006-.615.006H52.579a2.3,2.3,0,0,0-1.971.6,4.585,4.585,0,0,1-1.4,1.044l-.183.1c-1.43.782-1.7,1.807-1.7,3.425v8.045c0,.474.014.682.16.827a.684.684,0,0,0,.481.2.567.567,0,0,0,.411-.166c.183-.191.2-.408.183-.938,0-.094,0-.19,0-.286V55.136c0-.244,0-.491.009-.73a14.325,14.325,0,0,0-.045-1.861l1.381-.482.013.02c.282.462.595,1.116.871,1.693.083.174.162.34.234.487a6.733,6.733,0,0,0,.684,1.243c.089.093.224.143.716.3.2.064.45.143.75.248l.006,0,2.6.93q1.149.407,2.3.819c1.827.651,3.717,1.325,5.581,1.961l.01,0,5.32,1.9c.166.058.352.13.55.205a8.081,8.081,0,0,0,1.333.433.961.961,0,0,0,1.095-.8,1.023,1.023,0,0,0-.37-1.19,8.869,8.869,0,0,0-1.1-.565c-.125-.058-.25-.115-.372-.173l-.007,0-11.9-5.81c-.115-.057-.232-.113-.351-.17a11.671,11.671,0,0,1-1.27-.675A8.542,8.542,0,0,1,55.05,51.4c-.3-.347-.585-.675-.828-.9l-1.477-1.389,2.025.093c.169.008.356.012.572.012.2,0,.406,0,.6-.006s.412-.006.619-.006H62.5c.116,0,.229,0,.339.007S63.044,49.213,63.142,49.213Z" transform="translate(7773.743 12167.069)" fill="#371b34"/>
    <path id="plank-2" data-name="plank" d="M51.292,64.913l-4.826,0c-.316,0-.768.067-1.03-.155a.474.474,0,0,1-.024-.689c.239-.243.764-.151,1.071-.151H66.578l5,0c.279,0,.645-.063.87.143a.463.463,0,0,1,.023.677c-.266.275-1.022.177-1.371.177Z" transform="translate(7773.743 12167.069)" fill="#371b34"/>
  </g>
</svg>
