<svg width="23" height="23" viewBox="0 0 23 23" fill="none" xmlns="http://www.w3.org/2000/svg">
<path d="M18.2812 3.51562L9.14062 11.9531" stroke="#371B34" stroke-width="2" stroke-miterlimit="10" stroke-linecap="round" stroke-linejoin="round"/>
<path d="M9.14062 18.9844C13.0239 18.9844 16.1719 15.8364 16.1719 11.9531C16.1719 8.06987 13.0239 4.92188 9.14062 4.92188C5.25737 4.92188 2.10938 8.06987 2.10938 11.9531C2.10938 15.8364 5.25737 18.9844 9.14062 18.9844Z" stroke="#371B34" stroke-width="2" stroke-miterlimit="10" stroke-linecap="round" stroke-linejoin="round"/>
<path d="M9.14062 15.4688C11.0823 15.4688 12.6562 13.8948 12.6562 11.9531C12.6562 10.0115 11.0823 8.4375 9.14062 8.4375C7.199 8.4375 5.625 10.0115 5.625 11.9531C5.625 13.8948 7.199 15.4688 9.14062 15.4688Z" stroke="#371B34" stroke-width="2" stroke-miterlimit="10" stroke-linecap="round" stroke-linejoin="round"/>
<path d="M3.51562 20.3906L4.92188 17.5781" stroke="#371B34" stroke-width="2" stroke-miterlimit="10" stroke-linecap="round" stroke-linejoin="round"/>
<path d="M14.7656 20.3906L13.3594 17.5781" stroke="#371B34" stroke-width="2" stroke-miterlimit="10" stroke-linecap="round" stroke-linejoin="round"/>
<path d="M18.2812 1.40625V3.51562H20.3906" stroke="#371B34" stroke-width="2" stroke-miterlimit="10" stroke-linecap="round" stroke-linejoin="round"/>
<path d="M16.1719 3.51562V5.625H18.2812" stroke="#371B34" stroke-width="2" stroke-miterlimit="10" stroke-linecap="round" stroke-linejoin="round"/>
</svg>
