<svg width="23" height="23" viewBox="0 0 23 23" fill="none" xmlns="http://www.w3.org/2000/svg">
<g clip-path="url(#clip0_1_573)">
<path fill-rule="evenodd" clip-rule="evenodd" d="M6.56507 3.84422L5.68125 2.62852C5.5182 2.40423 5.27282 2.2538 4.99898 2.21026C4.72513 2.16671 4.4452 2.2336 4.22062 2.39625L4.22039 2.39649C4.00148 2.55503 3.85245 2.79217 3.80456 3.05819C3.75667 3.3242 3.81364 3.59843 3.96351 3.82336L7.38843 8.9618C7.44063 9.03825 7.52087 9.09104 7.61174 9.10869C7.70261 9.12635 7.79678 9.10745 7.8738 9.0561C7.95083 9.00475 8.00449 8.9251 8.02314 8.83443C8.04179 8.74375 8.02393 8.64938 7.97343 8.5718L4.54875 3.43336C4.49958 3.35972 4.48087 3.26987 4.49656 3.18272C4.51225 3.09557 4.56112 3.01789 4.63289 2.96602L4.63312 2.96578C4.66959 2.93931 4.71092 2.92028 4.75475 2.90978C4.79857 2.89928 4.84404 2.89751 4.88855 2.90459C4.93306 2.91166 4.97574 2.92743 5.01415 2.951C5.05256 2.97457 5.08595 3.00548 5.11242 3.04196L5.99625 4.25766C6.05107 4.33309 6.13362 4.38365 6.22572 4.39822C6.31783 4.41279 6.41195 4.39018 6.48738 4.33536C6.56281 4.28053 6.61337 4.19799 6.62794 4.10588C6.64251 4.01377 6.6199 3.91965 6.56507 3.84422ZM8.72578 6.53461L7.66218 5.33391C7.60976 5.27479 7.56025 5.21316 7.51382 5.14922L7.46015 5.07539C7.40533 4.99996 7.32278 4.9494 7.23068 4.93483C7.13857 4.92026 7.04445 4.94287 6.96902 4.9977C6.89359 5.05252 6.84303 5.13507 6.82846 5.22717C6.81389 5.31928 6.8365 5.4134 6.89132 5.48883L6.945 5.56266C7.00476 5.64493 7.06851 5.72414 7.13601 5.80008L8.19961 7.00078C8.26201 7.06835 8.34842 7.10877 8.44028 7.11338C8.53215 7.11798 8.62216 7.08639 8.691 7.0254C8.75985 6.9644 8.80205 6.87885 8.80855 6.7871C8.81505 6.69535 8.78534 6.60471 8.72578 6.53461ZM16.7977 4.97766L14.242 8.56266C14.1914 8.6387 14.1723 8.73145 14.1888 8.8213C14.2054 8.91115 14.2562 8.99105 14.3306 9.04409C14.405 9.09713 14.4971 9.11915 14.5874 9.1055C14.6777 9.09185 14.7592 9.04359 14.8146 8.97094L17.3702 5.38594C17.397 5.34835 17.4162 5.30584 17.4266 5.26084C17.4369 5.21585 17.4384 5.16925 17.4307 5.12371C17.4231 5.07817 17.4066 5.03458 17.3821 4.99542C17.3576 4.95627 17.3257 4.92232 17.2881 4.89551C17.2505 4.8687 17.208 4.84956 17.163 4.83918C17.118 4.8288 17.0714 4.82739 17.0259 4.83501C16.9803 4.84264 16.9367 4.85917 16.8976 4.88364C16.8584 4.90812 16.8245 4.94006 16.7977 4.97766ZM13.8994 7.17L15.1819 5.80196C15.2494 5.73 15.3134 5.655 15.3736 5.57719L17.2739 3.12774C17.3284 3.05746 17.408 3.01114 17.4961 2.99858C17.5841 2.98603 17.6735 3.00822 17.7455 3.06047L17.7462 3.06071C17.8987 3.17133 17.9337 3.38438 17.8242 3.53789L17.6655 3.76055C17.6115 3.8365 17.5898 3.9308 17.6052 4.02273C17.6207 4.11466 17.6719 4.19671 17.7478 4.25086C17.9058 4.36336 18.1254 4.32657 18.2381 4.1686L18.3968 3.94594C18.557 3.72112 18.6219 3.44208 18.5773 3.16963C18.5327 2.89717 18.3822 2.65339 18.1587 2.49141L18.1582 2.49094C17.9384 2.33173 17.6652 2.26421 17.3965 2.30266C17.1278 2.3411 16.8846 2.48249 16.7182 2.69696L14.8181 5.14618C14.7712 5.20688 14.7213 5.265 14.6691 5.32102L13.3863 6.68907C13.3226 6.75714 13.2885 6.84772 13.2915 6.94092C13.2945 7.03412 13.3343 7.12232 13.4023 7.18618C13.4704 7.24987 13.561 7.28394 13.6542 7.28091C13.7474 7.27787 13.8356 7.23799 13.8994 7.17Z" fill="#371B34"/>
<path fill-rule="evenodd" clip-rule="evenodd" d="M13.3718 12.8685C13.4237 10.8345 13.6844 8.81109 14.1499 6.83032C14.1657 6.76297 14.1613 6.69246 14.1371 6.62763C14.113 6.56279 14.0703 6.50651 14.0144 6.46583C13.9584 6.42514 13.8917 6.40187 13.8226 6.39892C13.7535 6.39596 13.6851 6.41347 13.6259 6.44923C13.17 6.72462 12.7085 6.92665 12.2438 7.05228C12.1549 7.07758 12.0795 7.13686 12.034 7.21729C11.9885 7.29772 11.9765 7.39284 12.0006 7.48206C12.0247 7.57127 12.0829 7.64742 12.1627 7.69401C12.2426 7.74061 12.3375 7.7539 12.427 7.73103C12.7261 7.64963 13.0181 7.54405 13.3001 7.41532C12.9267 9.20438 12.7155 11.0235 12.6689 12.8505C12.6668 12.9435 12.7016 13.0336 12.7658 13.101C12.83 13.1684 12.9183 13.2076 13.0114 13.21C13.1044 13.2124 13.1946 13.1778 13.2622 13.1138C13.3297 13.0497 13.3692 12.9616 13.3718 12.8685ZM9.99469 7.05251C9.54071 6.92829 9.08953 6.72814 8.64422 6.45134C8.5857 6.415 8.5178 6.39665 8.44895 6.39857C8.38009 6.4005 8.31332 6.4226 8.25692 6.46215C8.20052 6.5017 8.15698 6.55694 8.13171 6.62102C8.10644 6.6851 8.10055 6.75519 8.11477 6.82259C8.5261 8.77189 8.70071 10.7212 8.70867 12.6705C8.71234 12.7615 8.75117 12.8475 8.817 12.9105C8.88282 12.9735 8.9705 13.0085 9.06159 13.0081C9.15268 13.0077 9.24008 12.9721 9.3054 12.9086C9.37072 12.8451 9.40886 12.7587 9.4118 12.6677C9.40477 10.9164 9.26555 9.16517 8.94727 7.41392C9.22524 7.54328 9.5135 7.64927 9.80907 7.73079C9.89901 7.75541 9.99505 7.74328 10.0761 7.69709C10.1571 7.65089 10.2164 7.57441 10.241 7.48446C10.2656 7.39452 10.2535 7.29848 10.2073 7.21747C10.1611 7.13646 10.0846 7.07713 9.99469 7.05251Z" fill="#371B34"/>
<path fill-rule="evenodd" clip-rule="evenodd" d="M11.0902 5.25129C10.2455 5.25129 9.52289 6.05402 9.52289 7.08105C9.52289 8.10809 10.2455 8.91105 11.0902 8.91105C11.9346 8.91105 12.6572 8.10809 12.6572 7.08105C12.6572 6.05402 11.9346 5.25129 11.0902 5.25129ZM11.0902 5.95441C11.5877 5.95441 11.9541 6.4759 11.9541 7.08105C11.9541 7.68644 11.5877 8.20793 11.0902 8.20793C10.5923 8.20793 10.226 7.68644 10.226 7.08105C10.226 6.4759 10.5923 5.95441 11.0902 5.95441ZM0.46875 4.44855H0.9375C1.03074 4.44855 1.12016 4.41151 1.18609 4.34558C1.25202 4.27965 1.28906 4.19023 1.28906 4.09699C1.28906 4.00375 1.25202 3.91433 1.18609 3.8484C1.12016 3.78247 1.03074 3.74543 0.9375 3.74543H0.46875C0.37551 3.74543 0.286089 3.78247 0.220158 3.8484C0.154227 3.91433 0.117188 4.00375 0.117188 4.09699C0.117188 4.19023 0.154227 4.27965 0.220158 4.34558C0.286089 4.41151 0.37551 4.44855 0.46875 4.44855ZM19.2077 2.00098V7.24441C19.2077 7.38293 19.235 7.52009 19.288 7.64806C19.3409 7.77604 19.4186 7.89232 19.5166 7.99026C19.6145 8.0882 19.7308 8.16589 19.8588 8.21888C19.9867 8.27187 20.1239 8.29913 20.2624 8.2991H20.8594C21.1391 8.2991 21.4074 8.18798 21.6052 7.99019C21.8029 7.7924 21.9141 7.52413 21.9141 7.24441V1.7666C21.9141 1.48688 21.8029 1.21862 21.6052 1.02082C21.4074 0.823033 21.1391 0.711914 20.8594 0.711914H20.2624C20.1692 0.711914 20.0798 0.748954 20.0138 0.814884C19.9479 0.880815 19.9109 0.970236 19.9109 1.06348C19.9109 1.15672 19.9479 1.24614 20.0138 1.31207C20.0798 1.378 20.1692 1.41504 20.2624 1.41504H20.8594C20.9526 1.41522 21.0419 1.45232 21.1078 1.51821C21.1737 1.58411 21.2108 1.67342 21.2109 1.7666V7.24441C21.2109 7.33765 21.1739 7.42707 21.108 7.49301C21.042 7.55894 20.9526 7.59598 20.8594 7.59598H20.2624C20.1692 7.59598 20.0798 7.55894 20.0138 7.49301C19.9479 7.42707 19.9109 7.33765 19.9109 7.24441V2.00098C19.9075 1.90996 19.869 1.82378 19.8035 1.76056C19.7379 1.69734 19.6504 1.66202 19.5593 1.66202C19.4682 1.66202 19.3807 1.69734 19.3151 1.76056C19.2496 1.82378 19.2111 1.90996 19.2077 2.00098Z" fill="#371B34"/>
<path fill-rule="evenodd" clip-rule="evenodd" d="M3.29227 1.7666C3.29227 1.48688 3.18115 1.21862 2.98335 1.02082C2.78556 0.823033 2.5173 0.711914 2.23758 0.711914H1.64062C1.3609 0.711914 1.09264 0.823033 0.894848 1.02082C0.697056 1.21862 0.585938 1.48688 0.585938 1.7666V7.24441C0.585907 7.38293 0.613166 7.52009 0.666158 7.64806C0.71915 7.77604 0.796837 7.89232 0.89478 7.99026C0.992723 8.0882 1.109 8.16589 1.23698 8.21888C1.36495 8.27187 1.50211 8.29913 1.64062 8.2991H2.23758C2.37609 8.29913 2.51325 8.27187 2.64123 8.21888C2.7692 8.16589 2.88548 8.0882 2.98342 7.99026C3.08137 7.89232 3.15905 7.77604 3.21204 7.64806C3.26504 7.52009 3.2923 7.38293 3.29227 7.24441V1.7666ZM2.58914 1.7666V7.24441C2.58914 7.33765 2.5521 7.42707 2.48617 7.49301C2.42024 7.55894 2.33082 7.59598 2.23758 7.59598H1.64062C1.54744 7.59579 1.45813 7.55869 1.39224 7.4928C1.32635 7.42691 1.28925 7.3376 1.28906 7.24441V1.7666C1.28925 1.67342 1.32635 1.58411 1.39224 1.51821C1.45813 1.45232 1.54744 1.41522 1.64062 1.41504H2.23758C2.33082 1.41504 2.42024 1.45208 2.48617 1.51801C2.5521 1.58394 2.58914 1.67336 2.58914 1.7666ZM14.857 15.0636C14.3611 15.3791 13.878 15.7253 13.4475 16.1743C13.2569 16.3732 13.019 16.5205 12.756 16.6026C12.4931 16.6846 12.2136 16.6987 11.9437 16.6436L11.943 16.6433C11.5259 16.5589 11.096 16.5589 10.6788 16.6436C10.4089 16.6988 10.1293 16.6848 9.86627 16.6027C9.60322 16.5207 9.36525 16.3733 9.17461 16.1743C9.10127 16.0981 9.02585 16.0238 8.94844 15.9517C8.91463 15.9202 8.87496 15.8958 8.83169 15.8797C8.78842 15.8635 8.7424 15.8561 8.69626 15.8578C8.65012 15.8595 8.60477 15.8702 8.56278 15.8894C8.52079 15.9086 8.483 15.9359 8.45156 15.9697C8.42012 16.0035 8.39565 16.0432 8.37954 16.0865C8.36343 16.1297 8.356 16.1758 8.35768 16.2219C8.35936 16.268 8.3701 16.3134 8.38931 16.3554C8.40851 16.3974 8.4358 16.4352 8.46961 16.4666C8.53664 16.5289 8.6025 16.5936 8.66695 16.6609C8.9397 16.9454 9.28006 17.1562 9.65628 17.2737C10.0325 17.3911 10.4323 17.4114 10.8185 17.3326C11.1436 17.2667 11.4785 17.2666 11.8036 17.3324C12.1897 17.4113 12.5895 17.3912 12.9657 17.2737C13.342 17.1563 13.6823 16.9455 13.9549 16.6609C14.3452 16.254 14.7848 15.9428 15.2344 15.6571C15.3099 15.6056 15.3625 15.5268 15.3809 15.4373C15.3994 15.3478 15.3823 15.2546 15.3333 15.1775C15.2842 15.1004 15.2071 15.0454 15.1182 15.0241C15.0293 15.0029 14.9357 15.017 14.857 15.0636ZM12.4959 13.4842C13.7588 12.8694 15.0213 12.4536 16.2839 12.2139C16.3755 12.1965 16.4565 12.1434 16.509 12.0664C16.5615 11.9893 16.5812 11.8945 16.5639 11.8029C16.5465 11.7113 16.4934 11.6303 16.4164 11.5778C16.3393 11.5253 16.2445 11.5056 16.1529 11.5229C14.8312 11.7739 13.5098 12.2087 12.1882 12.8518C12.1073 12.8944 12.0462 12.9667 12.0177 13.0536C11.9892 13.1404 11.9957 13.235 12.0356 13.3171C12.0756 13.3993 12.146 13.4627 12.232 13.4939C12.3179 13.5251 12.4125 13.5216 12.4959 13.4842ZM6.33164 12.2125C7.44492 12.445 8.55797 12.8096 9.67125 13.3004C9.75638 13.337 9.8525 13.3384 9.93869 13.3045C10.0249 13.2705 10.0942 13.2039 10.1316 13.1192C10.1689 13.0344 10.1713 12.9383 10.1382 12.8518C10.1051 12.7652 10.0392 12.6953 9.95484 12.6571C8.79516 12.1457 7.63523 11.7662 6.47531 11.5243C6.38494 11.5075 6.29155 11.5267 6.21517 11.5779C6.1388 11.629 6.0855 11.7081 6.06671 11.7981C6.04792 11.8881 6.06513 11.9819 6.11465 12.0593C6.16418 12.1368 6.24207 12.1917 6.33164 12.2125Z" fill="#371B34"/>
<path fill-rule="evenodd" clip-rule="evenodd" d="M7.92141 19.9004V14.4483C7.92141 14.3551 7.88437 14.2657 7.81844 14.1997C7.75251 14.1338 7.66309 14.0968 7.56985 14.0968C7.47661 14.0968 7.38718 14.1338 7.32125 14.1997C7.25532 14.2657 7.21828 14.3551 7.21828 14.4483V19.9004C7.21828 19.9936 7.25532 20.083 7.32125 20.1489C7.38718 20.2149 7.47661 20.2519 7.56985 20.2519C7.66309 20.2519 7.75251 20.2149 7.81844 20.1489C7.88437 20.083 7.92141 19.9936 7.92141 19.9004ZM7.92141 13.1637C7.92135 12.7264 7.74759 12.307 7.43834 11.9977C7.12909 11.6885 6.70969 11.5147 6.27235 11.5146H6.27141C6.04066 11.5146 5.81246 11.5629 5.60153 11.6565C5.3906 11.7501 5.20162 11.8868 5.04676 12.0579C4.8919 12.2289 4.7746 12.4305 4.70243 12.6497C4.63026 12.8689 4.60482 13.1007 4.62774 13.3304L5.26899 19.7628C5.27914 19.8548 5.32521 19.9391 5.39718 19.9974C5.46914 20.0557 5.5612 20.0832 5.65335 20.074C5.7455 20.0648 5.8303 20.0197 5.88933 19.9483C5.94835 19.8769 5.97684 19.7852 5.9686 19.6929L5.32735 13.2605C5.31422 13.1286 5.32886 12.9955 5.37033 12.8696C5.4118 12.7438 5.47917 12.628 5.56811 12.5298C5.65705 12.4315 5.76558 12.353 5.88671 12.2993C6.00785 12.2455 6.13889 12.2178 6.27141 12.2178H6.27235C6.5232 12.2178 6.76377 12.3175 6.94116 12.4949C7.11854 12.6723 7.21822 12.9129 7.21828 13.1637C7.21828 13.257 7.25532 13.3464 7.32125 13.4123C7.38718 13.4782 7.47661 13.5153 7.56985 13.5153C7.66309 13.5153 7.75251 13.4782 7.81844 13.4123C7.88437 13.3464 7.92141 13.257 7.92141 13.1637ZM15.3863 20.1059V13.1632C15.3863 12.9125 15.4859 12.672 15.6632 12.4947C15.8405 12.3174 16.081 12.2178 16.3317 12.2178H16.3324C16.465 12.2178 16.5961 12.2457 16.7173 12.2995C16.8384 12.3533 16.947 12.4318 17.036 12.5301C17.1249 12.6284 17.1924 12.7442 17.2339 12.8702C17.2754 12.9961 17.29 13.1293 17.277 13.2612L16.6395 19.6573C16.6312 19.7495 16.6597 19.8413 16.7187 19.9127C16.7778 19.984 16.8625 20.0292 16.9547 20.0384C17.0468 20.0476 17.1389 20.0201 17.2109 19.9618C17.2828 19.9035 17.3289 19.8192 17.3391 19.7271L17.9766 13.3308C17.9994 13.1012 17.9738 12.8693 17.9016 12.6501C17.8294 12.4309 17.712 12.2293 17.5571 12.0582C17.4023 11.8871 17.2133 11.7504 17.0023 11.6568C16.7914 11.5631 16.5632 11.5147 16.3324 11.5146H16.3317C15.8945 11.5146 15.4752 11.6883 15.166 11.9975C14.8568 12.3067 14.6831 12.726 14.6831 13.1632V20.1059C14.6831 20.1991 14.7202 20.2886 14.7861 20.3545C14.852 20.4204 14.9415 20.4575 15.0347 20.4575C15.1279 20.4575 15.2174 20.4204 15.2833 20.3545C15.3492 20.2886 15.3863 20.1991 15.3863 20.1059Z" fill="#371B34"/>
<path fill-rule="evenodd" clip-rule="evenodd" d="M8.32031 21.1277C8.32031 20.6277 8.12165 20.1481 7.76805 19.7945C7.41444 19.4408 6.93484 19.2422 6.43476 19.2422H6.24633C5.74625 19.2422 5.26665 19.4408 4.91304 19.7945C4.55943 20.1481 4.36078 20.6277 4.36078 21.1277V21.4362C4.36078 21.5294 4.39782 21.6188 4.46375 21.6848C4.52968 21.7507 4.6191 21.7877 4.71234 21.7877H7.96875C8.06199 21.7877 8.15141 21.7507 8.21734 21.6848C8.28327 21.6188 8.32031 21.5294 8.32031 21.4362V21.1277ZM7.61648 21.0846H5.06484C5.07595 20.7787 5.20529 20.489 5.42565 20.2765C5.64601 20.064 5.9402 19.9453 6.24633 19.9453H6.43476C6.74091 19.9453 7.03513 20.064 7.25553 20.2765C7.47592 20.489 7.60532 20.7787 7.61648 21.0846ZM18.3352 21.1277C18.3352 20.6277 18.1365 20.1481 17.7829 19.7945C17.4293 19.4408 16.9497 19.2422 16.4496 19.2422H16.2614C16.0138 19.2422 15.7686 19.2909 15.5398 19.3856C15.311 19.4804 15.1031 19.6193 14.928 19.7944C14.7529 19.9695 14.6139 20.1773 14.5192 20.4061C14.4244 20.6349 14.3756 20.8801 14.3756 21.1277V21.4362C14.3756 21.5294 14.4127 21.6188 14.4786 21.6848C14.5445 21.7507 14.6339 21.7877 14.7272 21.7877H17.9836C18.0768 21.7877 18.1663 21.7507 18.2322 21.6848C18.2981 21.6188 18.3352 21.5294 18.3352 21.4362V21.1277ZM17.6313 21.0846H15.0797C15.0908 20.7787 15.2202 20.489 15.4406 20.2765C15.661 20.064 15.9553 19.9453 16.2614 19.9453H16.4496C16.7558 19.9453 17.05 20.064 17.2704 20.2765C17.4908 20.489 17.6202 20.7787 17.6313 21.0846Z" fill="#371B34"/>
<path fill-rule="evenodd" clip-rule="evenodd" d="M1.89914 21.7875H20.2158C20.309 21.7875 20.3984 21.7505 20.4644 21.6846C20.5303 21.6186 20.5673 21.5292 20.5673 21.436C20.5673 21.3427 20.5303 21.2533 20.4644 21.1874C20.3984 21.1215 20.309 21.0844 20.2158 21.0844H1.89914C1.8059 21.0844 1.71648 21.1215 1.65055 21.1874C1.58462 21.2533 1.54758 21.3427 1.54758 21.436C1.54758 21.5292 1.58462 21.6186 1.65055 21.6846C1.71648 21.7505 1.8059 21.7875 1.89914 21.7875ZM6.58875 18.1634H7.56984C7.66308 18.1634 7.7525 18.1264 7.81843 18.0604C7.88437 17.9945 7.9214 17.9051 7.9214 17.8118C7.9214 17.7186 7.88437 17.6292 7.81843 17.5632C7.7525 17.4973 7.66308 17.4603 7.56984 17.4603H6.58875C6.49551 17.4603 6.40609 17.4973 6.34016 17.5632C6.27423 17.6292 6.23719 17.7186 6.23719 17.8118C6.23719 17.9051 6.27423 17.9945 6.34016 18.0604C6.40609 18.1264 6.49551 18.1634 6.58875 18.1634ZM15.0347 18.1634H17.1766C17.2699 18.1634 17.3593 18.1264 17.4252 18.0604C17.4912 17.9945 17.5282 17.9051 17.5282 17.8118C17.5282 17.7186 17.4912 17.6292 17.4252 17.5632C17.3593 17.4973 17.2699 17.4603 17.1766 17.4603H15.0347C14.9414 17.4603 14.852 17.4973 14.7861 17.5632C14.7202 17.6292 14.6831 17.7186 14.6831 17.8118C14.6831 17.9051 14.7202 17.9945 14.7861 18.0604C14.852 18.1264 14.9414 18.1634 15.0347 18.1634ZM21.5625 4.44824H22.0312C22.1245 4.44824 22.2139 4.4112 22.2798 4.34527C22.3458 4.27934 22.3828 4.18992 22.3828 4.09668C22.3828 4.00344 22.3458 3.91402 22.2798 3.84809C22.2139 3.78216 22.1245 3.74512 22.0312 3.74512H21.5625C21.4693 3.74512 21.3798 3.78216 21.3139 3.84809C21.248 3.91402 21.2109 4.00344 21.2109 4.09668C21.2109 4.18992 21.248 4.27934 21.3139 4.34527C21.3798 4.4112 21.4693 4.44824 21.5625 4.44824ZM2.9407 4.44824H19.5593C19.6503 4.44492 19.7365 4.40642 19.7997 4.34086C19.8629 4.27529 19.8983 4.18776 19.8983 4.09668C19.8983 4.0056 19.8629 3.91807 19.7997 3.8525C19.7365 3.78694 19.6503 3.74844 19.5593 3.74512H2.9407C2.84968 3.74844 2.7635 3.78694 2.70028 3.8525C2.63707 3.91807 2.60174 4.0056 2.60174 4.09668C2.60174 4.18776 2.63707 4.27529 2.70028 4.34086C2.7635 4.40642 2.84968 4.44492 2.9407 4.44824Z" fill="#371B34"/>
</g>
<defs>
<clipPath id="clip0_1_573">
<rect width="22.5" height="22.5" fill="white"/>
</clipPath>
</defs>
</svg>
