<svg xmlns="http://www.w3.org/2000/svg" width="150" height="150" viewBox="0 0 150 150">
  <g id="Group_478" data-name="Group 478" transform="translate(1410 -7217)">
    <circle id="Ellipse_83" data-name="Ellipse 83" cx="75" cy="75" r="75" transform="translate(-1410 7217)" fill="#fc4d1f"/>
    <g id="Group_476" data-name="Group 476" transform="translate(-1363.125 7263.875)">
      <g id="vuesax_outline_user-add" data-name="vuesax/outline/user-add">
        <g id="user-add">
          <path id="Vector" d="M13.477,26.953A13.477,13.477,0,1,1,26.953,13.477,13.494,13.494,0,0,1,13.477,26.953Zm0-23.437a9.961,9.961,0,1,0,9.961,9.961A9.983,9.983,0,0,0,13.477,3.516Z" transform="translate(14.648 2.93)" fill="#fff"/>
          <path id="Vector-2" data-name="Vector" d="M1.758,19.922A1.771,1.771,0,0,1,0,18.164C0,8.156,9.82,0,21.891,0a25.534,25.534,0,0,1,6.937.938,1.751,1.751,0,1,1-.937,3.375,22.189,22.189,0,0,0-6-.8c-10.125,0-18.375,6.563-18.375,14.648A1.771,1.771,0,0,1,1.758,19.922Z" transform="translate(6.235 33.398)" fill="#fff"/>
          <path id="Vector-3" data-name="Vector" d="M11.133,22.266A11.017,11.017,0,0,1,3.7,19.383a10.034,10.034,0,0,1-2.109-2.531A11.113,11.113,0,0,1,3.141,3.375,11.121,11.121,0,0,1,19.406,3.7a11.108,11.108,0,0,1,2.859,7.43,9.847,9.847,0,0,1-.352,2.625,9.99,9.99,0,0,1-1.289,3.117A11.027,11.027,0,0,1,11.133,22.266Zm0-18.75a7.6,7.6,0,0,0-7.617,7.617,7.426,7.426,0,0,0,1.1,3.914,6.809,6.809,0,0,0,1.43,1.734,7.51,7.51,0,0,0,5.086,1.992,7.632,7.632,0,0,0,6.516-3.68,7.3,7.3,0,0,0,.867-2.133,6.816,6.816,0,0,0,.234-1.8A7.6,7.6,0,0,0,16.781,6.07,7.4,7.4,0,0,0,11.133,3.516Z" transform="translate(31.055 31.055)" fill="#fff"/>
          <path id="Vector-4" data-name="Vector" d="M0,0H56.25V56.25H0Z" fill="none" opacity="0"/>
          <path id="Vector-5" data-name="Vector" d="M0,2.9,2.9,0l2.9,2.9" transform="translate(39.291 38.326)" fill="none" stroke="#fff" stroke-linecap="round" stroke-linejoin="round" stroke-width="2.3"/>
          <path id="Vector-6" data-name="Vector" d="M0,0V7.723" transform="translate(42.188 38.326)" fill="none" stroke="#fff" stroke-linecap="round" stroke-linejoin="round" stroke-width="2.3"/>
        </g>
      </g>
    </g>
  </g>
</svg>
