<svg width="219" height="38" viewBox="0 0 219 38" fill="none" xmlns="http://www.w3.org/2000/svg">
<path d="M0.141719 30V2H11.8217C14.8351 2 17.1951 2.61333 18.9017 3.84C20.6084 5.06667 21.4617 6.84 21.4617 9.16C21.4617 10.68 21.1017 11.96 20.3817 13C19.6617 14.04 18.6617 14.8267 17.3817 15.36C16.1284 15.8667 14.7151 16.12 13.1417 16.12L13.8617 15.32C15.7817 15.32 17.4217 15.6 18.7817 16.16C20.1417 16.72 21.1684 17.5333 21.8617 18.6C22.5817 19.6667 22.9417 21 22.9417 22.6C22.9417 24.9467 22.0884 26.7733 20.3817 28.08C18.6751 29.36 16.0884 30 12.6217 30H0.141719ZM2.18172 28.24H12.6217C15.3151 28.24 17.3684 27.7867 18.7817 26.88C20.1951 25.9467 20.9017 24.4667 20.9017 22.44C20.9017 20.44 20.1951 18.9867 18.7817 18.08C17.3684 17.1467 15.3151 16.68 12.6217 16.68H1.94172V14.92H11.7417C14.1684 14.92 16.0484 14.4533 17.3817 13.52C18.7151 12.5867 19.3817 11.1867 19.3817 9.32C19.3817 7.48 18.7151 6.09333 17.3817 5.16C16.0484 4.22667 14.1684 3.76 11.7417 3.76H2.18172V28.24ZM37.7398 30.16C35.7398 30.16 33.9532 29.7067 32.3798 28.8C30.8332 27.8933 29.5932 26.64 28.6598 25.04C27.7532 23.44 27.2998 21.6133 27.2998 19.56C27.2998 17.48 27.7532 15.6533 28.6598 14.08C29.5932 12.48 30.8332 11.2267 32.3798 10.32C33.9532 9.41333 35.7398 8.96 37.7398 8.96C39.7398 8.96 41.5265 9.41333 43.0998 10.32C44.6732 11.2267 45.9132 12.48 46.8198 14.08C47.7265 15.6533 48.1798 17.48 48.1798 19.56C48.1798 21.6133 47.7265 23.44 46.8198 25.04C45.9132 26.64 44.6732 27.8933 43.0998 28.8C41.5265 29.7067 39.7398 30.16 37.7398 30.16ZM37.7398 28.36C39.3398 28.36 40.7798 28 42.0598 27.28C43.3398 26.5333 44.3398 25.4933 45.0598 24.16C45.7798 22.8267 46.1398 21.2933 46.1398 19.56C46.1398 17.8 45.7798 16.2667 45.0598 14.96C44.3398 13.6267 43.3398 12.6 42.0598 11.88C40.7798 11.1333 39.3398 10.76 37.7398 10.76C36.1398 10.76 34.6998 11.1333 33.4198 11.88C32.1665 12.6 31.1665 13.6267 30.4198 14.96C29.6998 16.2667 29.3398 17.8 29.3398 19.56C29.3398 21.2933 29.6998 22.8267 30.4198 24.16C31.1665 25.4933 32.1665 26.5333 33.4198 27.28C34.6998 28 36.1398 28.36 37.7398 28.36ZM62.4245 30.16C60.4779 30.16 58.7179 29.72 57.1445 28.84C55.5979 27.9333 54.3712 26.68 53.4645 25.08C52.5579 23.48 52.1045 21.64 52.1045 19.56C52.1045 17.4533 52.5579 15.6133 53.4645 14.04C54.3712 12.44 55.5979 11.2 57.1445 10.32C58.7179 9.41333 60.4779 8.96 62.4245 8.96C64.2645 8.96 65.9179 9.38667 67.3845 10.24C68.8779 11.0933 70.0512 12.3067 70.9045 13.88C71.7845 15.4533 72.2245 17.3467 72.2245 19.56C72.2245 21.72 71.7979 23.6 70.9445 25.2C70.0912 26.8 68.9179 28.0267 67.4245 28.88C65.9579 29.7333 64.2912 30.16 62.4245 30.16ZM62.5445 28.36C64.1445 28.36 65.5712 28 66.8245 27.28C68.1045 26.5333 69.1045 25.4933 69.8245 24.16C70.5712 22.8267 70.9445 21.2933 70.9445 19.56C70.9445 17.8 70.5712 16.2667 69.8245 14.96C69.1045 13.6267 68.1045 12.6 66.8245 11.88C65.5712 11.1333 64.1445 10.76 62.5445 10.76C60.9445 10.76 59.5045 11.1333 58.2245 11.88C56.9712 12.6 55.9712 13.6267 55.2245 14.96C54.5045 16.2667 54.1445 17.8 54.1445 19.56C54.1445 21.2933 54.5045 22.8267 55.2245 24.16C55.9712 25.4933 56.9712 26.5333 58.2245 27.28C59.5045 28 60.9445 28.36 62.5445 28.36ZM70.9845 30V23.16L71.3445 19.52L70.9445 15.88V0.319998H72.9445V30H70.9845ZM80.8967 37.92C79.9367 37.92 79.0301 37.76 78.1767 37.44C77.3501 37.12 76.6434 36.6533 76.0567 36.04L77.0567 34.52C77.5901 35.08 78.1634 35.4933 78.7767 35.76C79.4167 36.0267 80.1367 36.16 80.9367 36.16C81.8967 36.16 82.7367 35.8933 83.4567 35.36C84.2034 34.8267 84.8967 33.8533 85.5367 32.44L86.9767 29.24L87.2567 28.88L96.0967 9.12H98.1367L87.4167 32.84C86.8567 34.12 86.2434 35.12 85.5767 35.84C84.9367 36.5867 84.2301 37.12 83.4567 37.44C82.6834 37.76 81.8301 37.92 80.8967 37.92ZM86.9367 30.52L77.2567 9.12H79.3767L88.1767 28.76L86.9367 30.52ZM107.59 14.6H121.03V19.8H107.59V14.6ZM108.07 30H101.59V2H122.75V7.2H108.07V30ZM142.8 30V2H154.92C157.427 2 159.587 2.41333 161.4 3.24C163.214 4.04 164.614 5.2 165.6 6.72C166.587 8.24 167.08 10.0533 167.08 12.16C167.08 14.24 166.587 16.04 165.6 17.56C164.614 19.0533 163.214 20.2 161.4 21C159.587 21.8 157.427 22.2 154.92 22.2H146.4L149.28 19.36V30H142.8ZM160.6 30L153.6 19.84H160.52L167.6 30H160.6ZM149.28 20.08L146.4 17.04H154.56C156.56 17.04 158.054 16.6133 159.04 15.76C160.027 14.88 160.52 13.68 160.52 12.16C160.52 10.6133 160.027 9.41333 159.04 8.56C158.054 7.70667 156.56 7.28 154.56 7.28H146.4L149.28 4.2V20.08ZM181.415 30.48C179.175 30.48 177.028 30.1867 174.975 29.6C172.921 28.9867 171.268 28.2 170.015 27.24L172.215 22.36C173.415 23.2133 174.828 23.92 176.455 24.48C178.108 25.0133 179.775 25.28 181.455 25.28C182.735 25.28 183.761 25.16 184.535 24.92C185.335 24.6533 185.921 24.2933 186.295 23.84C186.668 23.3867 186.855 22.8667 186.855 22.28C186.855 21.5333 186.561 20.9467 185.975 20.52C185.388 20.0667 184.615 19.7067 183.655 19.44C182.695 19.1467 181.628 18.88 180.455 18.64C179.308 18.3733 178.148 18.0533 176.975 17.68C175.828 17.3067 174.775 16.8267 173.815 16.24C172.855 15.6533 172.068 14.88 171.455 13.92C170.868 12.96 170.575 11.7333 170.575 10.24C170.575 8.64 171.001 7.18667 171.855 5.88C172.735 4.54666 174.041 3.49333 175.775 2.72C177.535 1.92 179.735 1.52 182.375 1.52C184.135 1.52 185.868 1.73333 187.575 2.16C189.281 2.56 190.788 3.17333 192.095 4L190.095 8.92C188.788 8.17333 187.481 7.62667 186.175 7.28C184.868 6.90667 183.588 6.72 182.335 6.72C181.081 6.72 180.055 6.86667 179.255 7.16C178.455 7.45333 177.881 7.84 177.535 8.32C177.188 8.77333 177.015 9.30667 177.015 9.92C177.015 10.64 177.308 11.2267 177.895 11.68C178.481 12.1067 179.255 12.4533 180.215 12.72C181.175 12.9867 182.228 13.2533 183.375 13.52C184.548 13.7867 185.708 14.0933 186.855 14.44C188.028 14.7867 189.095 15.2533 190.055 15.84C191.015 16.4267 191.788 17.2 192.375 18.16C192.988 19.12 193.295 20.3333 193.295 21.8C193.295 23.3733 192.855 24.8133 191.975 26.12C191.095 27.4267 189.775 28.48 188.015 29.28C186.281 30.08 184.081 30.48 181.415 30.48ZM203.132 30V7.28H194.172V2H218.572V7.28H209.612V30H203.132Z" fill="#371B34"/>
<path d="M129.696 30V4.4L132.496 7.2H124.096V2H136.176V30H129.696Z" fill="#FC4D1F"/>
</svg>
