<svg width="23" height="23" viewBox="0 0 23 23" fill="none" xmlns="http://www.w3.org/2000/svg">
<path d="M3.75 11.25C3.75 11.5089 3.95988 11.7188 4.21875 11.7188H12.4622L9.98108 14.1998C9.89319 14.2877 9.84381 14.4069 9.84381 14.5312C9.84375 14.7901 10.0536 14.9999 10.3125 15C10.4368 15.0001 10.5561 14.9507 10.6439 14.8627L13.9251 11.5814C13.9252 11.5814 13.9252 11.5814 13.9253 11.5813C14.1082 11.3983 14.1082 11.1016 13.9251 10.9186L10.6439 7.63739C10.4622 7.46195 10.1743 7.46195 9.99258 7.63739C9.80639 7.81723 9.80124 8.11398 9.98108 8.30017L12.4622 10.7812H4.21875C3.95988 10.7812 3.75 10.9911 3.75 11.25ZM16.4062 1.875H6.09375C4.79982 1.8762 3.7512 2.92482 3.75 4.21875V7.96875C3.75 8.22762 3.95988 8.4375 4.21875 8.4375C4.47762 8.4375 4.6875 8.22762 4.6875 7.96875V4.21875C4.68836 3.44244 5.31744 2.81336 6.09375 2.8125H16.4062C17.1826 2.81336 17.8116 3.44244 17.8125 4.21875V18.2812C17.8116 19.0576 17.1826 19.6866 16.4062 19.6875H6.09375C5.31744 19.6866 4.68836 19.0576 4.6875 18.2812V14.5312C4.6875 14.2724 4.47762 14.0625 4.21875 14.0625C3.95988 14.0625 3.75 14.2724 3.75 14.5312V18.2812C3.7512 19.5752 4.79982 20.6238 6.09375 20.625H16.4062C17.7002 20.6238 18.7488 19.5752 18.75 18.2812V4.21875C18.7488 2.92482 17.7002 1.8762 16.4062 1.875Z" fill="#FC4D1F"/>
</svg>
