<svg xmlns="http://www.w3.org/2000/svg" width="19.012" height="24" viewBox="0 0 19.012 24">
  <g id="field-judge_2_" data-name="field-judge (2)" transform="translate(0.25 0.253)">
    <path id="Path_19158" data-name="Path 19158" d="M.356,23.507h17.81a.356.356,0,0,0,.356-.356V18.763c0-3.01-3.8-3.94-6.832-4.274v-.769A6.013,6.013,0,0,0,13.81,9.156l.712-1.948a.356.356,0,0,0,0-.061c.5-2.885-.146-4.923-1.9-6.055C9.828-.8,6.351-.084,5.14,2.046A2.8,2.8,0,0,0,3.847,4.807a8.4,8.4,0,0,0,.264,2.44c.032.107.5,1.731.5,1.842A6,6,0,0,0,6.832,13.8v.684c-3,.3-6.832,1.261-6.832,4.274v4.388A.356.356,0,0,0,.356,23.507Zm15.2-7.4c1.286.527,2.258,1.257,2.258,2.654v4.032H15.552Zm-2.964-.777a15.149,15.149,0,0,1,2.251.516v6.946H12.588Zm-.712-.1v7.559H9.617V18.962c1.229-1.25,1.963-2.112,2.062-3.747Zm-2.615,3.07c-1.19-1.208-1.72-1.9-1.72-3.487v-.552a3.63,3.63,0,0,0,1.667.445,3.64,3.64,0,0,0,1.781-.506v.613C10.985,16.383,10.426,17.121,9.261,18.307ZM12.246,1.69c1.514.976,2.037,2.711,1.6,5.3l-.175.484a4.014,4.014,0,0,0-.435-1.318,2.747,2.747,0,0,0-1.571-3,.356.356,0,0,0-.2-.032c-1.82.267-3.947-.232-4.912.224a3.89,3.89,0,0,1-.741-1.04C6.825.675,9.756,0,12.246,1.69ZM4.827,7.165c-.132-.474-.192-.274-.267-2.383a2.163,2.163,0,0,1,.712-1.966,4.6,4.6,0,0,0,.677.944,2.793,2.793,0,0,0-.734,2.166,5.343,5.343,0,0,0-.388,1.24Zm.516,2.052A9.263,9.263,0,0,1,5.92,6.164.356.356,0,0,0,5.956,6c-.021-1.008.224-1.617.777-1.916a.146.146,0,0,0,.039-.025c.292-.242,3.626-.064,4.688-.2a2.13,2.13,0,0,1,1.069,2.362.356.356,0,0,0,.061.235,5.8,5.8,0,0,1,.534,2.65c0,3-2.308,4.912-3.9,4.912S5.393,12.141,5.343,9.217Zm1.332,6.006.189-.018c.1,1.738.894,2.582,2.062,3.758v3.833H6.657Zm-2.967.6a14.112,14.112,0,0,1,2.237-.509v7.48H3.69Zm-3,2.939c0-1.382.983-2.137,2.265-2.679v6.711H.712Z" transform="translate(-0.005 -0.005)" fill="#371b34"/>
    <path id="Path_19158_-_Outline" data-name="Path 19158 - Outline" d="M18.161,23.5a.356.356,0,0,0,.356-.356V18.758c0-3.01-3.8-3.94-6.832-4.274v-.769A6.013,6.013,0,0,0,13.8,9.151L14.517,7.2a.355.355,0,0,0,0-.061c.5-2.885-.146-4.923-1.9-6.055C9.822-.8,6.346-.089,5.135,2.041A2.8,2.8,0,0,0,3.842,4.8a8.4,8.4,0,0,0,.264,2.44c.032.107.5,1.731.5,1.842A6,6,0,0,0,6.827,13.8v.684c-3,.3-6.832,1.261-6.832,4.274v4.388a.356.356,0,0,0,.356.356h17.81m-2.615-7.4c1.286.527,2.258,1.257,2.258,2.654V22.79H15.547V16.1m-2.964-.777a15.149,15.149,0,0,1,2.251.516V22.79H12.583V15.327m-.908-.118.2.021V22.79H9.612V18.957c1.229-1.25,1.963-2.112,2.062-3.747M6.859,15.2c.1,1.738.894,2.582,2.062,3.758V22.79H6.652l.018-7.573.189-.018m-.919.11v7.48H3.685L3.7,15.819A14.113,14.113,0,0,1,5.94,15.31m-2.967.769V22.79H.707V18.758c0-1.382.983-2.137,2.265-2.679m4.563-1.817a3.63,3.63,0,0,0,1.667.445,3.64,3.64,0,0,0,1.781-.506v.613c0,1.564-.563,2.3-1.728,3.487-1.19-1.208-1.72-1.9-1.72-3.487v-.552M11.454,3.851a2.13,2.13,0,0,1,1.069,2.362.356.356,0,0,0,.061.235,5.8,5.8,0,0,1,.534,2.65c0,3-2.308,4.912-3.9,4.912s-3.833-1.874-3.883-4.8a9.263,9.263,0,0,1,.577-3.053.356.356,0,0,0,.036-.167c-.021-1.008.224-1.617.777-1.916a.146.146,0,0,0,.039-.025c.292-.242,3.626-.064,4.688-.2m.053-.733-.046,0a24.185,24.185,0,0,1-3.545.023,3.368,3.368,0,0,0-1.367.2A3.89,3.89,0,0,1,5.808,2.3C6.82.67,9.751-.007,12.241,1.685c1.514.976,2.037,2.711,1.6,5.3l-.175.484a4.015,4.015,0,0,0-.435-1.318,2.747,2.747,0,0,0-1.571-3,.356.356,0,0,0-.154-.035m-6.24-.307a4.6,4.6,0,0,0,.677.944A2.793,2.793,0,0,0,5.21,5.92a5.343,5.343,0,0,0-.388,1.24c-.132-.474-.192-.274-.267-2.383a2.163,2.163,0,0,1,.712-1.966M18.161,23.747H.351a.6.6,0,0,1-.6-.6V18.758c0-2.456,2.361-4.008,6.832-4.5v-.348A6.209,6.209,0,0,1,4.359,9.1c-.031-.187-.42-1.553-.484-1.769A8.506,8.506,0,0,1,3.6,4.81,3.028,3.028,0,0,1,4.953,1.866,4.77,4.77,0,0,1,9.132-.253,6.459,6.459,0,0,1,12.753.882c1.838,1.189,2.514,3.3,2.01,6.274a.6.6,0,0,1,0,.067l0,.033L14.049,9.2a6.249,6.249,0,0,1-2.119,4.631v.439c4.534.54,6.832,2.051,6.832,4.493v4.388A.6.6,0,0,1,18.161,23.747Zm-2.37-1.2H17.56V18.758c0-1.008-.533-1.7-1.769-2.28Zm-2.964,0h1.761v-6.52a14.97,14.97,0,0,0-1.761-.411Zm-2.971,0h1.769V16.651a7.214,7.214,0,0,1-1.769,2.406Zm-2.959,0H8.676V19.058a7.012,7.012,0,0,1-1.765-2.373Zm-2.967,0H5.695V15.6a13.926,13.926,0,0,0-1.748.4Zm-2.978,0H2.728V16.458C1.5,17.047.952,17.767.952,18.758Zm6.828-7.893v.163a3.877,3.877,0,0,0,1.475,3.137,3.951,3.951,0,0,0,1.483-3.137v-.209a3.894,3.894,0,0,1-1.531.347H9.2A3.892,3.892,0,0,1,7.781,14.652Zm-2.2-5.4c.068,2.757,2.193,4.515,3.637,4.515a3.477,3.477,0,0,0,2.363-1.251A5.053,5.053,0,0,0,12.872,9.1a5.733,5.733,0,0,0-.493-2.518.6.6,0,0,1-.1-.4A1.9,1.9,0,0,0,11.407,4.1c-.482.051-1.29.051-2.143.052a15.232,15.232,0,0,0-2.353.094.39.39,0,0,1-.074.046c-.29.159-.667.51-.641,1.692a.6.6,0,0,1-.06.28,5.553,5.553,0,0,0-.487,2.343A2.859,2.859,0,0,1,5.584,9.25Zm7.9-3.147a4.264,4.264,0,0,1,.184.408c.293-2.244-.218-3.758-1.556-4.621l0,0A5.262,5.262,0,0,0,9.146.946,3.688,3.688,0,0,0,6.091,2.32a3.633,3.633,0,0,0,.52.735,4.073,4.073,0,0,1,1.3-.157c.322,0,.663.014,1.025.029.387.016.786.032,1.187.032a8.965,8.965,0,0,0,1.3-.081.617.617,0,0,1,.081-.006.6.6,0,0,1,.26.059A2.961,2.961,0,0,1,13.481,6.1ZM5.211,3.2A2.056,2.056,0,0,0,4.8,4.767c.022.633.043,1.053.065,1.344q.047-.123.1-.243a3.135,3.135,0,0,1,.646-2.12A4.85,4.85,0,0,1,5.211,3.2Z" transform="translate(0 0)" fill="#371b34"/>
    <path id="Path_19159" data-name="Path 19159" d="M23.307,31.667a1.834,1.834,0,0,0,1.314-.545.356.356,0,1,0-.506-.5,1.144,1.144,0,0,1-1.617,0,.356.356,0,1,0-.506.5A1.834,1.834,0,0,0,23.307,31.667Z" transform="translate(-14.097 -19.652)" fill="#371b34"/>
    <path id="Path_19159_-_Outline" data-name="Path 19159 - Outline" d="M23.312,31.662a1.834,1.834,0,0,0,1.3-.545.356.356,0,1,0-.506-.5,1.144,1.144,0,0,1-1.617,0,.356.356,0,0,0-.506.5,1.835,1.835,0,0,0,1.314.545h.01m0,.245h-.019a2.093,2.093,0,0,1-1.479-.618.6.6,0,0,1,.854-.847.887.887,0,0,0,.627.262h.015a.886.886,0,0,0,.627-.262.6.6,0,1,1,.854.847A2.092,2.092,0,0,1,23.312,31.907Z" transform="translate(-14.092 -19.647)" fill="#371b34"/>
  </g>
</svg>
