<svg xmlns="http://www.w3.org/2000/svg" width="28.22" height="24" viewBox="0 0 28.22 24">
  <g id="nutrition_1" data-name="nutrition 1" transform="translate(-2.513 -4.102)">
    <path id="Path_19164" data-name="Path 19164" d="M2.514,6.925a5.562,5.562,0,0,0,1.514,4,1.414,1.414,0,0,0-.556,1.362A93.064,93.064,0,0,0,7.14,27.142a1.358,1.358,0,0,0,2.6,0,93.073,93.073,0,0,0,3.669-14.854,1.414,1.414,0,0,0-.556-1.362,5.561,5.561,0,0,0,1.514-4,.709.709,0,0,0-.724-.741,9.988,9.988,0,0,0-2.92.343,5.292,5.292,0,0,0-1.874-2.29.679.679,0,0,0-.812,0,5.309,5.309,0,0,0-1.867,2.27A11.5,11.5,0,0,0,3.24,6.185.709.709,0,0,0,2.514,6.925ZM9.836,8.391,9.329,7.054a3.31,3.31,0,0,0-.891-1.226,3.324,3.324,0,0,0-.886,1.214L7.06,8.32,5.745,7.932A7.522,7.522,0,0,0,4.085,7.7a3.091,3.091,0,0,0,1.236,2.352,5.8,5.8,0,0,0,3.1.585h.044a5.8,5.8,0,0,0,3.1-.585A3.094,3.094,0,0,0,12.793,7.7a6.2,6.2,0,0,0-1.6.238ZM4.951,12.124h6.976c-.213,1.343-.583,3.418-1.167,5.945H7.7v1.486H10.4c-.513,2.067-1.16,4.371-1.965,6.785q-.395-1.183-.74-2.326h.74V22.528H7.263C6.552,20.02,6.02,17.733,5.63,15.84H7.7V14.353H5.338C5.174,13.479,5.046,12.728,4.951,12.124Z" transform="translate(0)" fill="#371b34" fill-rule="evenodd"/>
    <path id="Path_19165" data-name="Path 19165" d="M20.4,14.022a.743.743,0,0,1,.541.9,4.775,4.775,0,0,1-3.513,3.513.743.743,0,0,1-.36-1.442,3.289,3.289,0,0,0,2.432-2.432A.743.743,0,0,1,20.4,14.022Z" transform="translate(6.801 4.813)" fill="#371b34"/>
    <path id="Path_19166" data-name="Path 19166" d="M19.158,12.637a4.753,4.753,0,0,1,.785-5.44L18.892,6.146a6.02,6.02,0,0,0-1.451,6.077c-3.4-1.538-6.941,1.291-6.941,5.6,0,4.1,3.66,7.431,8.174,7.431s8.174-3.327,8.174-7.431C26.848,13.2,22.765,10.275,19.158,12.637Zm-.484,2.254-.928-.743a3.124,3.124,0,0,0-3.771-.407,4.679,4.679,0,0,0-1.989,4.077c0,3.153,2.858,5.945,6.688,5.945s6.688-2.792,6.688-5.945a4.679,4.679,0,0,0-1.989-4.077,3.124,3.124,0,0,0-3.771.407Z" transform="translate(3.884 0.994)" fill="#371b34" fill-rule="evenodd"/>
    <path id="Path_19167" data-name="Path 19167" d="M17,10.216A3.51,3.51,0,0,0,20.716,6.5,3.51,3.51,0,0,0,17,10.216Z" transform="translate(7.044 1.166)" fill="#371b34"/>
  </g>
</svg>
