<svg width="24" height="24" viewBox="0 0 24 24" fill="none" xmlns="http://www.w3.org/2000/svg">
<path fill-rule="evenodd" clip-rule="evenodd" d="M2.51343 6.00246C2.58849 7.34801 2.97146 8.18096 3.53231 8.69426C3.25847 8.89821 3.09971 9.24056 3.158 9.61071C3.44418 11.428 4.15965 15.272 5.62633 19.605C5.91783 20.4662 7.08208 20.4662 7.37358 19.605C8.84023 15.272 9.55573 11.428 9.84193 9.61071C9.90018 9.24056 9.74143 8.89821 9.46758 8.69421C10.0284 8.18096 10.4114 7.34801 10.4864 6.00246C10.5018 5.72676 10.2753 5.49966 9.99923 5.50361C9.18518 5.51531 8.53863 5.56476 8.03423 5.73431C7.82603 5.18511 7.40568 4.66659 6.77308 4.19324C6.61148 4.07231 6.38838 4.07231 6.22678 4.19324C5.59933 4.66274 5.18063 5.17666 4.97073 5.72091C4.48091 5.57646 3.8395 5.51916 3.00194 5.50451C2.72584 5.49966 2.49805 5.72676 2.51343 6.00246ZM7.44038 6.98891L7.09918 6.08876C7.00468 5.83956 6.82003 5.55931 6.49993 5.26371C6.18318 5.55621 5.99908 5.83366 5.90373 6.08081L5.57203 6.94081L4.68786 6.68006C4.42703 6.60316 4.07088 6.55181 3.57052 6.52446C3.71917 7.48851 4.07649 7.89596 4.40223 8.10666C4.86799 8.40786 5.54663 8.49951 6.48498 8.50046H6.51488C7.45328 8.49951 8.13188 8.40786 8.59763 8.10666C8.92368 7.89576 9.28138 7.48776 9.42978 6.52171C8.94488 6.54711 8.60448 6.59761 8.35288 6.68216L7.44038 6.98891ZM4.15298 9.50046H8.84693C8.70368 10.4042 8.45498 11.8001 8.06203 13.5005H5.99988V14.5005H7.82238C7.47703 15.8916 7.04213 17.4417 6.49993 19.0655C6.32283 18.535 6.15713 18.0123 6.00228 17.5005H6.49988V16.5005H5.70918C5.23043 14.8135 4.87224 13.2745 4.61041 12.0005H5.99988V11.0005H4.41361C4.30307 10.4124 4.21737 9.90671 4.15298 9.50046Z" fill="#371B34"/>
<path d="M19.1214 14.015C19.3893 14.082 19.5522 14.3535 19.4852 14.6214C19.1904 15.8005 18.3005 16.6904 17.1214 16.9852C16.8535 17.0522 16.582 16.8893 16.5151 16.6214C16.4481 16.3535 16.611 16.082 16.8789 16.015C17.6997 15.8098 18.3098 15.1997 18.5151 14.3788C18.582 14.1109 18.8535 13.9481 19.1214 14.015Z" fill="#371B34"/>
<path fill-rule="evenodd" clip-rule="evenodd" d="M16.3254 10.5137C15.771 9.21728 15.8671 7.84003 16.8535 6.85358L16.1465 6.14648C14.9818 7.31113 14.7795 8.83518 15.1701 10.2354C12.8823 9.20033 10.5 11.1039 10.5 14C10.5 16.7614 12.9625 19 16 19C19.0375 19 21.5 16.7614 21.5 14C21.5 10.8899 18.7527 8.92453 16.3254 10.5137ZM16 12.0306L15.3753 11.5309C14.4464 10.7877 13.5311 10.829 12.838 11.2571C12.1052 11.7097 11.5 12.6788 11.5 14C11.5 16.1216 13.4229 18 16 18C18.5771 18 20.5 16.1216 20.5 14C20.5 12.6788 19.8948 11.7097 19.162 11.2571C18.4689 10.829 17.5537 10.7877 16.6247 11.5309L16 12.0306Z" fill="#371B34"/>
<path d="M17 9C18.5 9 19.5 8 19.5 6.5C18 6.5 17 7.5 17 9Z" fill="#371B34"/>
</svg>
