<svg width="22" height="22" viewBox="0 0 22 22" fill="none" xmlns="http://www.w3.org/2000/svg">
<path d="M14.9382 11.7096L14.5406 11.4065L14.5383 11.4095L14.9382 11.7096ZM14.668 12.0183L14.3145 11.6647L14.3145 11.6647L14.668 12.0183ZM14.9189 10.2528L15.3145 9.94695L15.295 9.92169L15.2724 9.89912L14.9189 10.2528ZM14.8448 10.1733L14.4766 10.5116L14.4766 10.5116L14.8448 10.1733ZM14.6004 9.91509L14.2347 10.256L14.2407 10.2625L14.2469 10.2687L14.6004 9.91509ZM10.6622 7.25228L10.4742 7.71564L10.4794 7.71769L10.6622 7.25228ZM9.86101 7.03038L9.88272 6.53085L9.87187 6.53038H9.86101V7.03038ZM9.2529 7.1751L9.02938 6.72784L9.01891 6.73308L9.00869 6.7388L9.2529 7.1751ZM8.71236 7.77327L8.25191 7.57837L8.24905 7.58513L8.24639 7.59197L8.71236 7.77327ZM8.53862 8.47756L9.03014 8.56924L9.03862 8.52379V8.47756H8.53862ZM8.51931 13.4366L8.02485 13.5108L8.0493 13.6737L8.16583 13.7902L8.51931 13.4366ZM8.5429 13.5447L8.05266 13.643V13.643L8.5429 13.5447ZM8.75097 14.3145L8.30773 14.5459L8.3081 14.5466L8.75097 14.3145ZM9.86101 14.9706V15.4706H9.86934L9.87766 15.4703L9.86101 14.9706ZM10.7587 14.7004L10.5671 14.2386L10.2587 14.3665V14.7004H10.7587ZM14.61 12.0762L14.2566 11.7226L14.2495 11.7296L14.2427 11.737L14.61 12.0762ZM11 0.5C5.21216 0.5 0.5 5.21023 0.5 11.0058H1.5C1.5 5.76228 5.76468 1.5 11 1.5V0.5ZM21.5 11.0058C21.5 5.21023 16.7878 0.5 11 0.5V1.5C16.2353 1.5 20.5 5.76228 20.5 11.0058H21.5ZM11 21.5C16.7875 21.5 21.5 16.7901 21.5 11.0058H20.5C20.5 16.2373 16.2357 20.5 11 20.5V21.5ZM0.5 11.0058C0.5 16.7901 5.21253 21.5 11 21.5V20.5C5.7643 20.5 1.5 16.2373 1.5 11.0058H0.5ZM14.5383 11.4095C14.5388 11.4088 14.5369 11.4114 14.5314 11.4182C14.5265 11.4244 14.5199 11.4326 14.5119 11.4423C14.4959 11.4619 14.4754 11.4864 14.4525 11.5131C14.4052 11.5684 14.3544 11.6248 14.3145 11.6647L15.0214 12.372C15.147 12.2465 15.2974 12.064 15.3382 12.0097L14.5383 11.4095ZM14.6699 11.0063C14.6699 11.1556 14.6234 11.2979 14.5406 11.4065L15.3359 12.0127C15.562 11.7161 15.6699 11.3566 15.6699 11.0063H14.6699ZM14.5234 10.5586C14.6166 10.6792 14.6699 10.8309 14.6699 11.0063H15.6699C15.6699 10.6201 15.5495 10.2509 15.3145 9.94695L14.5234 10.5586ZM14.4766 10.5116C14.506 10.5435 14.5423 10.5833 14.5655 10.6064L15.2724 9.89912C15.273 9.89974 15.2688 9.89547 15.256 9.88171C15.2446 9.86942 15.2305 9.85405 15.213 9.83503L14.4766 10.5116ZM14.2469 10.2687C14.3262 10.348 14.4113 10.4405 14.4766 10.5116L15.213 9.83503C15.1499 9.76635 15.0507 9.65822 14.9539 9.56145L14.2469 10.2687ZM10.4794 7.71769C10.9687 7.9098 11.7195 8.33903 12.4602 8.83894C13.2015 9.33925 13.8781 9.87361 14.2347 10.256L14.9661 9.57414C14.5311 9.10756 13.7792 8.52277 13.0196 8.01006C12.2593 7.49694 11.4367 7.01927 10.8449 6.78688L10.4794 7.71769ZM9.8393 7.52991C9.88219 7.53177 9.98903 7.55338 10.1387 7.5986C10.2755 7.63998 10.4059 7.68789 10.4742 7.71561L10.8501 6.78896C10.7544 6.75011 10.5951 6.69189 10.428 6.64137C10.2735 6.5947 10.0618 6.53864 9.88272 6.53085L9.8393 7.52991ZM9.47642 7.62236C9.60124 7.55998 9.72755 7.53038 9.86101 7.53038V6.53038C9.56977 6.53038 9.29066 6.59727 9.02938 6.72784L9.47642 7.62236ZM9.17281 7.96817C9.23429 7.82293 9.34945 7.69405 9.49712 7.6114L9.00869 6.7388C8.67373 6.92629 8.40279 7.22192 8.25191 7.57837L9.17281 7.96817ZM9.03862 8.47756C9.03862 8.50095 9.0369 8.51912 9.03645 8.52396C9.03574 8.53156 9.03499 8.53756 9.03458 8.54078C9.03373 8.5473 9.03296 8.55219 9.0327 8.55385C9.03209 8.55763 9.03169 8.55983 9.03183 8.55901C9.03202 8.55799 9.03268 8.55444 9.034 8.54769C9.03655 8.53467 9.04055 8.51487 9.04578 8.48972C9.05622 8.43956 9.07091 8.3713 9.08759 8.29828C9.10437 8.22485 9.12257 8.14918 9.14003 8.0833C9.15885 8.01229 9.17227 7.97016 9.17834 7.95457L8.24639 7.59197C8.19684 7.71932 8.14584 7.93053 8.11271 8.07556C8.0944 8.15569 8.07833 8.23034 8.06675 8.28601C8.06097 8.31377 8.05614 8.33762 8.05262 8.35561C8.05091 8.36437 8.04922 8.37317 8.04782 8.38093C8.04717 8.3845 8.04616 8.39018 8.04515 8.39652C8.04468 8.39945 8.04376 8.40538 8.04281 8.41269C8.04235 8.41631 8.04156 8.42265 8.04082 8.43053C8.04034 8.43564 8.03862 8.45402 8.03862 8.47756H9.03862ZM8.87453 10.9956C8.87453 9.98229 8.93251 9.09267 9.03014 8.56924L8.0471 8.38588C7.93238 9.0009 7.87453 9.96366 7.87453 10.9956H8.87453ZM9.01378 13.3624C8.93182 12.8162 8.87453 11.9562 8.87453 10.9956H7.87453C7.87453 11.9859 7.93306 12.8991 8.02485 13.5108L9.01378 13.3624ZM9.03314 13.4463C9.02697 13.4156 9.02095 13.3855 9.01616 13.3631C9.01392 13.3526 9.0107 13.3378 9.00704 13.3232C9.00545 13.317 9.00174 13.3024 8.9962 13.2853C8.99364 13.2774 8.9878 13.2599 8.97855 13.2385C8.97826 13.2379 8.94688 13.157 8.8728 13.0829L8.16583 13.7902C8.14138 13.7657 8.12385 13.7431 8.11255 13.7273C8.10085 13.7109 8.09199 13.6964 8.08576 13.6855C8.07366 13.6644 8.06556 13.6467 8.06111 13.6364C8.05225 13.616 8.04684 13.5996 8.04476 13.5932C8.04019 13.579 8.03762 13.5686 8.03735 13.5676C8.03632 13.5635 8.03643 13.5635 8.03817 13.5717C8.04136 13.5867 8.04594 13.6094 8.05266 13.643L9.03314 13.4463ZM9.19422 14.0831C9.19449 14.0837 9.19114 14.0771 9.18486 14.0609C9.17886 14.0454 9.17177 14.0252 9.16381 14.0001C9.14775 13.9495 9.13107 13.8882 9.11447 13.8208C9.0812 13.6856 9.05293 13.545 9.03314 13.4463L8.05266 13.643C8.07209 13.7399 8.10428 13.9007 8.14345 14.0598C8.17861 14.2026 8.23261 14.402 8.30773 14.5459L9.19422 14.0831ZM9.8224 14.4706C9.56727 14.4706 9.32125 14.3255 9.19384 14.0824L8.3081 14.5466C8.60541 15.1139 9.1895 15.4706 9.8224 15.4706V14.4706ZM9.86101 14.4706H9.8224V15.4706H9.86101V14.4706ZM10.2587 14.7004C10.2587 14.547 10.3283 14.4433 10.35 14.4124C10.3792 14.3711 10.4082 14.3435 10.422 14.3311C10.4506 14.305 10.4757 14.2885 10.4834 14.2835C10.5026 14.271 10.5177 14.2631 10.5198 14.262C10.5278 14.2579 10.5311 14.2565 10.5254 14.2591C10.5164 14.2632 10.4981 14.2711 10.4708 14.2822C10.4171 14.304 10.3403 14.3334 10.255 14.363C10.169 14.3927 10.0797 14.4207 9.99942 14.4413C9.91284 14.4634 9.86213 14.4703 9.84436 14.4708L9.87766 15.4703C10.1078 15.4626 10.3989 15.3713 10.5819 15.308C10.6848 15.2724 10.7781 15.2367 10.8475 15.2085C10.8817 15.1946 10.9132 15.1812 10.9386 15.1697C10.9501 15.1645 10.9668 15.1568 10.9838 15.1479C10.9904 15.1444 11.009 15.1346 11.0305 15.1205C11.0393 15.1148 11.0653 15.0976 11.0946 15.0711C11.1085 15.0583 11.1378 15.0305 11.1671 14.989C11.189 14.9579 11.2587 14.854 11.2587 14.7004H10.2587ZM14.2427 11.737C13.8777 12.1323 13.2097 12.6562 12.485 13.1434C11.7625 13.6292 11.034 14.0449 10.5671 14.2386L10.9503 15.1623C11.5065 14.9315 12.2983 14.474 13.043 13.9733C13.7855 13.474 14.5316 12.8981 14.9774 12.4154L14.2427 11.737ZM14.3145 11.6647L14.2566 11.7226L14.9635 12.4298L15.0214 12.372L14.3145 11.6647Z" fill="#371B34"/>
</svg>
