<svg width="21" height="20" viewBox="0 0 21 20" fill="none" xmlns="http://www.w3.org/2000/svg">
<g clip-path="url(#clip0_957_148)">
<path fill-rule="evenodd" clip-rule="evenodd" d="M10.9639 1.19604L13.2799 5.85504C13.3372 5.97093 13.4217 6.07123 13.5262 6.14734C13.6307 6.22344 13.7521 6.27309 13.8799 6.29204L19.0649 7.04104C19.2746 7.06952 19.4645 7.1799 19.5929 7.34804C19.7097 7.49956 19.7657 7.68914 19.7502 7.87977C19.7347 8.07041 19.6486 8.24841 19.5089 8.37904L15.7499 12.014C15.6561 12.102 15.5861 12.2124 15.5466 12.3349C15.5071 12.4573 15.4993 12.5878 15.5239 12.714L16.4239 17.842C16.4545 18.0466 16.4032 18.255 16.2811 18.4219C16.1591 18.5889 15.9761 18.701 15.7719 18.734C15.5958 18.7614 15.4155 18.7334 15.2559 18.654L10.6379 16.233C10.524 16.1713 10.3965 16.139 10.2669 16.139C10.1374 16.139 10.0099 16.1713 9.89593 16.233L5.24393 18.667C5.05664 18.7623 4.83969 18.7811 4.63879 18.7195C4.4379 18.658 4.26873 18.5208 4.16693 18.337C4.08593 18.1837 4.05747 18.0081 4.08593 17.837L4.98593 12.709C5.00812 12.5828 4.99914 12.453 4.95975 12.331C4.92036 12.209 4.85177 12.0985 4.75993 12.009L0.981933 8.37604C0.908432 8.30299 0.8501 8.21613 0.810296 8.12045C0.770492 8.02477 0.75 7.92216 0.75 7.81854C0.75 7.71491 0.770492 7.6123 0.810296 7.51663C0.8501 7.42095 0.908432 7.33409 0.981933 7.26104C1.1086 7.14563 1.26528 7.06833 1.43393 7.03804L6.61993 6.28904C6.74745 6.26906 6.86838 6.219 6.97272 6.14301C7.07705 6.06702 7.16179 5.96728 7.21993 5.85204L9.53393 1.19604C9.57979 1.10222 9.64392 1.01851 9.72257 0.949825C9.80122 0.881136 9.8928 0.82885 9.99193 0.796037C10.1931 0.729335 10.4125 0.74516 10.6019 0.840037C10.7573 0.917247 10.8841 1.04194 10.9639 1.19604V1.19604Z" stroke="#371B34" stroke-width="1.25" stroke-linecap="round" stroke-linejoin="round"/>
</g>
<defs>
<clipPath id="clip0_957_148">
<rect width="20.502" height="19.567" fill="white"/>
</clipPath>
</defs>
</svg>
