<svg width="91" height="91" viewBox="0 0 91 91" fill="none" xmlns="http://www.w3.org/2000/svg">
<g clip-path="url(#clip0_479_5932)">
<path fill-rule="evenodd" clip-rule="evenodd" d="M90.689 46.844C90.4513 57.1206 86.6175 66.9884 79.8551 74.73C74.453 81.1423 67.3527 85.902 59.369 88.463C56.8765 89.2773 54.3169 89.8696 51.72 90.233C49.0232 90.6277 46.2952 90.7703 43.5719 90.659C41.1678 90.5551 38.7751 90.2676 36.4149 89.799C32.0583 88.9273 27.8544 87.417 23.939 85.317C19.8221 83.113 16.0729 80.2822 12.826 76.926C9.06535 73.0721 6.02747 68.574 3.85701 63.646C2.20213 59.9052 1.06661 55.9556 0.482011 51.907C0.0642286 49.0325 -0.0808558 46.1249 0.0489056 43.223C0.180535 40.1854 0.625054 37.1695 1.37508 34.223C2.5021 29.7559 4.30945 25.4886 6.73396 21.571C10.8744 14.8379 16.7063 9.30664 23.649 5.52802C27.3019 3.52618 31.2167 2.04517 35.2799 1.12803C37.1462 0.710159 39.0371 0.409577 40.941 0.228037C42.9065 0.0323595 44.8828 -0.0344622 46.857 0.0280244C49.5608 0.0908597 52.2514 0.425884 54.888 1.02802C56.612 1.43502 58.32 1.91704 60.013 2.43904C60.8207 2.66965 61.5317 3.15624 62.0391 3.82563C62.5466 4.49502 62.8231 5.31105 62.827 6.15104C62.8614 7.13126 62.528 8.08887 61.8922 8.8357C61.2564 9.58253 60.3641 10.0646 59.3909 10.187C58.7225 10.2732 58.0433 10.2023 57.4071 9.98002C54.9399 9.14527 52.3929 8.56821 49.807 8.25804C47.3958 7.95361 44.9599 7.89495 42.5369 8.08302C34.6384 8.64615 27.1315 11.7393 21.129 16.904C16.9972 20.4017 13.6807 24.761 11.4119 29.676C9.94098 32.8491 8.93282 36.2167 8.41805 39.676C8.04866 42.0181 7.91024 44.3909 8.00496 46.76C8.29927 55.3889 11.61 63.6413 17.3609 70.081C21.1255 74.3756 25.8345 77.739 31.118 79.907C33.7093 80.9694 36.4119 81.7366 39.1749 82.194C42.02 82.6789 44.9128 82.8236 47.7921 82.625C55.475 82.1631 62.8182 79.2973 68.783 74.433C73.1614 70.9205 76.6878 66.4625 79.098 61.393C80.4901 58.4669 81.4922 55.3708 82.0789 52.184C82.6448 49.0919 82.825 45.9415 82.6151 42.805C82.4184 39.6296 81.8001 36.4945 80.7769 33.482C80.5735 32.9284 80.4944 32.3368 80.5455 31.7492C80.5966 31.1616 80.7766 30.5925 81.0726 30.0823C81.3685 29.5722 81.7732 29.1335 82.2579 28.7974C82.7426 28.4614 83.2955 28.2362 83.877 28.138C84.7925 27.9925 85.7299 28.1694 86.5294 28.6386C87.3288 29.1077 87.9407 29.8399 88.2601 30.71C88.8931 32.5163 89.398 34.3648 89.7711 36.242C90.4429 39.7348 90.7505 43.2878 90.689 46.844Z" fill="#090A0A"/>
<path fill-rule="evenodd" clip-rule="evenodd" d="M43.4561 61.9871C43.0259 62.0006 42.5994 61.9034 42.2175 61.7049C41.8357 61.5063 41.511 61.213 41.2749 60.8531C40.0289 59.1461 38.803 57.4221 37.499 55.7601C33.9747 51.3153 30.1628 47.1063 26.0879 43.1601C25.7095 42.8373 25.4344 42.4105 25.2964 41.9327C25.1584 41.4548 25.1639 40.9469 25.312 40.4721C25.4871 39.8667 25.8888 39.3522 26.4336 39.0355C26.9784 38.7189 27.6244 38.6245 28.2371 38.7721C30.8731 39.4501 33.4991 40.1641 36.1301 40.8651C37.7691 41.3021 39.409 41.7341 41.043 42.1891C41.1981 42.2464 41.3676 42.2512 41.5257 42.2028C41.6837 42.1544 41.8216 42.0554 41.918 41.9211C46.3163 37.0516 50.963 32.4121 55.8391 28.0211C62.9801 21.5041 70.4121 15.3331 78.0391 9.39113C78.6996 8.81346 79.5563 8.51071 80.4331 8.54512C81.0511 8.5546 81.651 8.75387 82.1519 9.11592C82.6527 9.47798 83.0301 9.9853 83.2329 10.5691C83.4713 11.1399 83.5314 11.7694 83.405 12.3749C83.2787 12.9804 82.9717 13.5334 82.5249 13.9611C82.429 14.0608 82.3255 14.1527 82.2151 14.2361C78.5538 17.1926 75.1636 20.4699 72.085 24.0291C66.9555 29.8871 62.1567 36.0267 57.711 42.4191C53.511 48.3525 49.5033 54.4161 45.688 60.6101C45.48 61.0238 45.1612 61.3717 44.7671 61.6148C44.373 61.8579 43.9191 61.9868 43.4561 61.9871Z" fill="#FC4D1F"/>
</g>
<defs>
<clipPath id="clip0_479_5932">
<rect width="90.689" height="90.698" fill="white"/>
</clipPath>
</defs>
</svg>
