<svg width="80" height="80" viewBox="0 0 80 80" fill="none" xmlns="http://www.w3.org/2000/svg">
<path d="M67.3514 0H12.6486C5.67063 0 0 5.67063 0 12.6486V67.3514C0 74.3294 5.67063 80 12.6486 80H67.3514C74.3294 80 80 74.3294 80 67.3514V12.6486C80 5.68761 74.3124 0 67.3514 0ZM75.416 67.3514C75.416 71.7997 71.7997 75.416 67.3514 75.416H12.6486C8.20034 75.416 4.58404 71.7997 4.58404 67.3514V12.6486C4.58404 8.20034 8.20034 4.58404 12.6486 4.58404H67.3514C71.7997 4.58404 75.416 8.20034 75.416 12.6486V67.3514Z" fill="#A396A2"/>
<path d="M41.6123 19.8809C40.7125 18.9811 39.2694 18.9811 38.3695 19.8809L26.4171 31.8504C25.5172 32.7502 25.5172 34.1933 26.4171 35.0931C27.3169 35.993 28.76 35.993 29.6598 35.0931L37.7244 27.0286V58.5057C37.7244 59.7791 38.743 60.7977 40.0164 60.7977C41.2897 60.7977 42.3084 59.7791 42.3084 58.5057V27.0286L50.3559 35.0762C50.7974 35.5176 51.3916 35.7553 51.9688 35.7553C52.5461 35.7553 53.1403 35.5346 53.5817 35.0762C54.4816 34.1763 54.4816 32.7332 53.5817 31.8334L41.6123 19.8809Z" fill="#A396A2"/>
</svg>
