<svg width="20" height="19" viewBox="0 0 20 19" fill="none" xmlns="http://www.w3.org/2000/svg">
<path fill-rule="evenodd" clip-rule="evenodd" d="M7.99203 12.2568C11.4505 12.2568 14.4064 12.7809 14.4064 14.8743C14.4064 16.9678 11.4702 17.5068 7.99203 17.5068C4.53265 17.5068 1.57765 16.9875 1.57765 14.8931C1.57765 12.7987 4.51296 12.2568 7.99203 12.2568Z" stroke="#371B34" stroke-width="1.2" stroke-linecap="round" stroke-linejoin="round"/>
<path fill-rule="evenodd" clip-rule="evenodd" d="M7.99203 9.26875C5.72141 9.26875 3.88016 7.42844 3.88016 5.15781C3.88016 2.88719 5.72141 1.04688 7.99203 1.04688C10.2617 1.04688 12.103 2.88719 12.103 5.15781C12.1114 7.42 10.2833 9.26031 8.0211 9.26875H7.99203Z" stroke="#371B34" stroke-width="1.2" stroke-linecap="round" stroke-linejoin="round"/>
<path d="M14.4529 8.20145C15.9538 7.99051 17.1098 6.70238 17.1126 5.14332C17.1126 3.60676 15.9923 2.33176 14.5232 2.09082" stroke="#371B34" stroke-width="1.2" stroke-linecap="round" stroke-linejoin="round"/>
<path d="M16.4332 11.8115C17.8873 12.0281 18.9026 12.5381 18.9026 13.5881C18.9026 14.3109 18.4244 14.7796 17.6519 15.0731" stroke="#371B34" stroke-width="1.2" stroke-linecap="round" stroke-linejoin="round"/>
</svg>
