<svg width="84" height="84" viewBox="0 0 84 84" fill="none" xmlns="http://www.w3.org/2000/svg">
<path fill-rule="evenodd" clip-rule="evenodd" d="M0.333252 42.0238C0.333252 19.0257 19.035 0.333008 41.9999 0.333008C64.9649 0.333008 83.6666 19.0257 83.6666 42.0238C83.6666 64.9736 64.9649 83.6664 41.9999 83.6664C19.035 83.6664 0.333252 64.9736 0.333252 42.0238ZM57.283 46.2407C57.7255 45.7985 58.2885 45.1151 58.4092 44.9543C59.0527 44.1101 59.3744 43.065 59.3744 42.0238C59.3744 40.854 59.0125 39.7686 58.3287 38.8842C58.2727 38.8282 58.163 38.7088 58.02 38.5532C57.7525 38.262 57.3685 37.844 57.0015 37.4772C53.7036 33.9397 45.0968 28.151 40.5923 26.3822C39.9085 26.1048 38.1791 25.4978 37.2541 25.4576C36.3693 25.4576 35.5247 25.6586 34.7203 26.0606C33.7148 26.6234 32.9105 27.5078 32.4681 28.553C32.1865 29.2766 31.7441 31.4473 31.7441 31.4875C31.3017 33.8593 31.0604 37.7184 31.0604 41.9796C31.0604 46.0437 31.3017 49.7381 31.6637 52.15C31.6736 52.16 31.7082 52.3325 31.762 52.6005C31.9254 53.4152 32.2658 55.1124 32.6289 55.8082C33.5137 57.4965 35.2432 58.5417 37.0932 58.5417H37.2541C38.4607 58.5015 40.9944 57.4563 40.9944 57.4161C45.2576 55.6474 53.6634 50.14 57.0417 46.4819L57.283 46.2407Z" fill="#F7F8F8"/>
</svg>
