<svg xmlns="http://www.w3.org/2000/svg" width="21.986" height="22" viewBox="0 0 21.986 22">
  <g id="Vector" transform="translate(-1.52 -1.49)">
    <path id="Path_19175" data-name="Path 19175" d="M22.02,9.622,20.479,8.081l.826-.853L17.782,3.706l-.853.826L15.361,2.963l.826-.853a2.084,2.084,0,0,1,1.568-.619,2.178,2.178,0,0,1,1.569.647l3.55,3.55a2.114,2.114,0,0,1,.633,1.555A2.114,2.114,0,0,1,22.873,8.8ZM8.811,22.858a2.113,2.113,0,0,1-1.555.633A2.113,2.113,0,0,1,5.7,22.858l-3.55-3.55a2.226,2.226,0,0,1,0-3.109l.826-.826,1.568,1.568-.853.826,3.55,3.55.826-.853,1.568,1.569Zm10.924-9.246L21.3,12.043,12.967,3.706,11.4,5.274Zm-7.7,7.7,1.568-1.6-8.31-8.31-1.6,1.568Zm-.165-6.439,3.027-3-1.761-1.761-3,3.027Zm1.734,7.98a2.26,2.26,0,0,1-3.137,0l-8.31-8.31a2.26,2.26,0,0,1,0-3.137L3.721,9.842a2.114,2.114,0,0,1,1.555-.633,2.113,2.113,0,0,1,1.555.633l1.734,1.734,3.027-3.027L9.857,6.843a2.13,2.13,0,0,1-.633-1.568,2.13,2.13,0,0,1,.633-1.568l1.568-1.568a2.226,2.226,0,0,1,3.109,0l8.338,8.338a2.226,2.226,0,0,1,0,3.109L21.3,15.153a2.26,2.26,0,0,1-3.137,0l-1.706-1.734-3.027,3.027,1.734,1.734a2.226,2.226,0,0,1,0,3.109Z" transform="translate(0 0)" fill="#371b34"/>
  </g>
</svg>
